<?xml version="1.0" encoding="utf-8"?>
<!-- Generator: Adobe Illustrator 25.0.0, SVG Export Plug-In . SVG Version: 6.00 Build 0)  -->
<svg version="1.1" id="OBJECTS" xmlns:serif="http://www.serif.com/"
	 xmlns="http://www.w3.org/2000/svg" xmlns:xlink="http://www.w3.org/1999/xlink" x="0px" y="0px" viewBox="-125 0 750 500"
	 style="enable-background:new -125 0 750 500;" xml:space="preserve">
<style type="text/css">
	.st0{fill:#DEE4FF;}
	.st1{fill:#FDDAC3;}
	.st2{fill:#D9A140;}
	.st3{fill:#29405C;}
	.st4{fill:#0A668B;}
	.st5{fill:#0F3C62;}
	.st6{fill:#ECF0F2;}
	.st7{fill:#3DB28F;}
	.st8{clip-path:url(#SVGID_2_);}
	.st9{fill:#BFF2EA;}
	.st10{fill:#EDBFA0;}
	.st11{fill:#0D0D22;}
	.st12{fill:#753829;}
	.st13{fill:#E05357;}
	.st14{fill:#E57E6F;}
	.st15{fill:#E4B543;}
	.st16{fill:#D3525B;}
	.st17{fill:#BF7A63;}
	.st18{fill:#AB5D49;}
	.st19{fill:#E39189;}
	.st20{fill:#BE444C;}
	.st21{fill:#532423;}
	.st22{fill:#B5463C;}
	.st23{fill:#FFFFFF;}
	.st24{fill:#08668A;}
	.st25{fill:#065271;}
	.st26{fill:#E1D1DF;}
	.st27{fill:#3B3B58;}
	.st28{fill:#BABAD3;}
	.st29{fill:#76798C;}
	.st30{fill:#231E3F;}
	.st31{fill:#1A1B2C;}
	.st32{fill:#58333A;}
	.st33{fill:#492230;}
	.st34{fill:#C7AFC7;}
	.st35{fill:#724472;}
	.st36{fill:#653765;}
	.st37{fill:#9CC6D4;}
	.st38{fill:#7BACBA;}
	.st39{fill:#6290AA;}
	.st40{fill:#F9B256;}
	.st41{fill:#F29D4B;}
	.st42{fill:#F8EDCA;}
	.st43{fill:#65439A;}
	.st44{fill:#513688;}
</style>
<g>
	<path class="st0" d="M-52.7,286.6c0,0,40.9-245.8,139.5-233.3C217,69.8,275.7,176,338.1,110.1c62.4-66,121.8-37.1,160.3-12.9
		c52.5,33,68.8,133.7,47.2,195.6C486.2,462.3,433,352.5,368.1,396.9C261.4,470.1-95.8,459.6-52.7,286.6z"/>
	<path class="st0" d="M344.8,66.6c15.3,13-23.3,43.7-31.2,48.3c-18.4,10.7-52.3,3.4-70.8-16.8c-4.8-5.3-3.5-15.9,12.1-18.5
		c11.4-1.9,22.8,3.6,34.3,2C297.3,80.5,332.7,56.3,344.8,66.6L344.8,66.6z"/>
	<path class="st0" d="M-11.5,80c-2.1,9.2-1.4,22.7-1.3,22.6c1.6-1.8,3.2-3.5,4.8-5.2c3.5-3.8,7.1-7.4,10.9-10.9
		C8.9,80.6,45.1,52.5,36,42.3c-4.7-5.2-16.2,0.2-20.7,2.6C-1.1,53.6-8.2,64.9-11.5,80z"/>
	<path class="st0" d="M451.1,409.3c-5-5.5-42.3-21.3-58.7-13.9c-9.9,4.5-35.2,19.4-41.1,28.1c-2.3,3.3-5.4,9.6-0.1,12.2
		c6.6,3.2,16.9,0.3,23.3-1.4c12.6-3.3,25.3-7.3,38.6-8.1c9.1-0.5,18.3,0.8,27.4,0.2C448.3,425.9,459.7,418.7,451.1,409.3
		L451.1,409.3z"/>
</g>
<g>
	<g>
		<path class="st1" d="M472.6,141.5c0,0-10.6-2.4-23.8,18c-8,12.3-13.7,18.5-15.2,17c-1.2-1.2-7.8-19.6-7.3-27.4l-9.1,4.5
			c0,0,3.2,51.4,13.4,51.3c10.8-0.2,26.3-26.5,26.3-26.5L472.6,141.5L472.6,141.5z"/>
		<path class="st1" d="M418.6,154.8c1.8,0.8,7.3,0.6,9-7.9c0.6-2.9-0.9-3.8,0.7-8.6c0.3-0.8,0.7-2.9,0-3.6c-1.5-1.4-4.8,5.3-4.8,5.3
			c-0.3-0.1-5.1-8.1-7.1-8c-2.3,0.2,1.5,7.5,1.2,7.6c-0.3,0.1-5.4-6-7.6-4.4c-1.5,1.1,3.7,7.4,3.6,7.6c0,0.1-7-3-7.7-1.2
			c-0.8,1.9,4.8,4.1,5.7,5.6c0.1,0.1-6.1-0.2-5.9,1.4c0.1,1,4.6,2.4,5.4,2.7C413.9,152.9,415.7,153.5,418.6,154.8L418.6,154.8z"/>
	</g>
	<path class="st2" d="M519.1,111.6c0,0,28.7-9.8,21.3,17.1c-5.4,19.9,18.8,33.3,18.8,33.3c-5.1-1.5-5.1-1.4-8.9-3.4
		c0.4,1.6,11,6.8,12.4,6.8c0,0-23.5,9.6-33.6-6.3C516.6,139.2,527.2,111.1,519.1,111.6z"/>
	<g>
		<g>
			<path class="st3" d="M513.3,290.7c5.2-2.2,5.8-3.6,10.5,7.8c4.8,11.3,7.7,29.6,5.8,31.4c-3,2.8-8.9-1.9-15.4-12.1
				C507.7,307.4,508.1,292.9,513.3,290.7z"/>
			<path class="st1" d="M519.2,324.5c-1.6-1.9-3.2-4.1-4.9-6.8c-6.6-10.4-6.2-24.9-1-27.1c0.7-0.3,1.2-0.5,1.8-0.8
				C519.2,300,525.5,318.7,519.2,324.5z"/>
		</g>
		<g>
			<path class="st3" d="M485.4,351.8c5.7,0,6.7-1.1,6.7,11.2c0.1,12.3-4.3,30.3-6.7,31.2c-3.8,1.5-7.5-5.2-9.6-17.1
				C473.8,365,479.7,351.8,485.4,351.8L485.4,351.8z"/>
			<path class="st1" d="M477.8,385.3c-0.7-2.3-1.4-5.1-1.9-8.1c-2.1-12.1,3.8-25.3,9.5-25.4c0.7,0,1.3,0,1.9,0
				C487.2,362.6,485.9,382.3,477.8,385.3z"/>
		</g>
		<g>
			<path class="st4" d="M489.7,214.8c0,0,3.3,10.5,2.8,22.7c-0.8,17-3.7,45.8-5.5,56.2c-0.5,3.2,20.8-2.8,24-2.1
				c5.2,1.1,6.2,19.7,1.3,24.2c-8.8,8.1-52.2,23.5-53.8,4.6c-2.1-25.3-2.3-46.3-2.3-46.3s-11.5,41.7-8.8,48.7
				c4.6,12,38.2,25.1,38.3,29.9c0.1,4.8-5.3,14.6-9.7,16.8c-4.5,2.2-61.3-17.5-61.1-43.3c0.2-25.7,16-101.9,25.2-112.6
				C452.7,199.2,489.7,214.8,489.7,214.8z"/>
			<path class="st5" d="M434.4,225.8c2-5.8,4-10,5.7-12c12.6-14.6,49.6,1.1,49.6,1.1s2.1,6.7,2.7,15.7
				C477.6,232.3,450.5,234.1,434.4,225.8z"/>
			<path class="st5" d="M455.4,277.4c0.1-3.3,0-8.3-1-9.6c-1.6-2-14.8-10.8-9.9-8.2c4.9,2.6,11.3,3.4,11.8,7.7
				c0.4,2.9,0.2,6.5,0,8.5c0-1.1,0-1.7,0-1.7S455.9,275.4,455.4,277.4L455.4,277.4z"/>
			<path class="st6" d="M515.5,304.4c-8.4,3.3-20,6.7-27.7,6c-3.4-0.3-6.1-1.4-7.7-3.3c-1.7-2-2.4-4.8-1.5-9
				c2.2-9.6,7.9-54.2,5.4-79c-0.1-1,0.6-1.8,1.6-1.9c1-0.1,1.8,0.6,1.9,1.6c2.5,25.2-3.2,70.4-5.4,80.2c-0.6,2.7-0.4,4.6,0.7,5.9
				c1.1,1.3,3,1.9,5.3,2.1c7.6,0.7,19.1-2.9,27.2-6.2C515.4,301.9,515.5,303.1,515.5,304.4z"/>
		</g>
	</g>
	<g>
		<path class="st1" d="M589.9,107.3c-2,0.1-7.1-2.1-5.5-10.6c0.5-2.9,2.2-3.2,2.5-8.3c0-0.8,0.4-3,1.3-3.3c2-0.8,2.5,6.7,2.5,6.7
			c0.3,0,7.7-5.7,9.5-4.8c2,1-4.1,6.5-3.9,6.7c0.3,0.2,7.2-3.6,8.7-1.3c1,1.6-6.2,5.5-6.1,5.8c0,0.1,7.6-0.2,7.6,1.7
			c0,2.1-6,2.1-7.4,3.1c-0.1,0.1,5.8,2,5,3.5c-0.5,0.9-5.2,0.5-6,0.6C595,107.2,593.1,107.1,589.9,107.3L589.9,107.3z"/>
		<path class="st1" d="M487.2,139.2c15.4-2.3,29.2-2,58.5-18.5c28.6-16.1,39.2-23.2,39.2-23.2l5.6,9.1c0,0-59.7,39.5-72.6,54.9
			c-13.5,16.1-20.2,26.5-21.9,35.7c-1.8,9.2,2.1,28.2,2.1,28.2c-27.1,3.3-49.2,0.3-62.6-5.2c0,0,7.7-40.7,12.4-53.1
			c4-10.5,14.6-20.7,19.1-24.1C471.4,139.4,479.7,140.3,487.2,139.2L487.2,139.2z"/>
		<path class="st7" d="M510.9,135.4c-5.3,6-19.8,25.2-4.9,40.9c-5.8,8.2-9,14.8-10.2,20.7c-1.8,9.2,2.1,28.2,2.1,28.2
			c-27.1,3.3-49.2,0.3-62.6-5.2c0,0,7.7-40.7,12.4-53.1c4-10.5,14.6-20.7,19.1-24.1c4.5-3.4,12.8-2.5,20.3-3.6
			C494.8,138.1,502,137.6,510.9,135.4z"/>
		<g>
			<defs>
				<path id="SVGID_1_" d="M510.9,135.4c-5.3,6-19.8,25.2-4.9,40.9c-5.8,8.2-9,14.8-10.2,20.7c-1.8,9.2,2.1,28.2,2.1,28.2
					c-27.1,3.3-49.2,0.3-62.6-5.2c0,0,7.7-40.7,12.4-53.1c4-10.5,14.6-20.7,19.1-24.1c4.5-3.4,12.8-2.5,20.3-3.6
					C494.8,138.1,502,137.6,510.9,135.4z"/>
			</defs>
			<clipPath id="SVGID_2_">
				<use xlink:href="#SVGID_1_"  style="overflow:visible;"/>
			</clipPath>
			<g class="st8">
				<g>
					<path class="st9" d="M445.4,152.6c0,0,56.9-5.9,67.3-8.7c10.5-2.8,12.2-9.6,12.2-9.6s-65.3,10.1-69.2,9.5
						C451.9,143.2,445.4,152.6,445.4,152.6z"/>
					<path class="st9" d="M447.9,157.7c0,0,61.5-2.3,64.4-2.9c2.8-0.6-4.9,15.1-4.9,15.1l-65,1.6L447.9,157.7L447.9,157.7z"/>
					<path class="st9" d="M440.4,179.6c0,0,58.6-4.8,69.2,2.9c10.6,7.7,0.6,18,0.6,18s-68.6-8-72.4-6.5
						C433.9,195.6,440.4,179.6,440.4,179.6z"/>
					<path class="st9" d="M434.7,202.6c0,0,66.5,2.6,70.1,6.6c3.6,4,1.7,9.6,1.7,9.6s-63.4,4.1-73.4-4.9
						C423.1,204.8,434.7,202.6,434.7,202.6L434.7,202.6z"/>
				</g>
			</g>
		</g>
		<path class="st1" d="M504.2,136.8c-1.6,1.7-3.4,3.8-4.4,5.1c-5,6.6-12.7,15.6-21.8,16.3c-15.9,1.2-12.1-9.2-3.5-17.9
			c3.9-0.5,8.5-0.5,12.7-1.1C492.8,138.4,498.2,137.9,504.2,136.8z"/>
	</g>
	<g>
		<g>
			<path class="st1" d="M499.1,131c0,0-1.7,8.1-1.8,10.9c0,2.8-18.1,1.3-18.1,1.3s4.4-8.1,4.8-13.1C484.4,126.6,499.1,131,499.1,131
				L499.1,131z"/>
			<path class="st10" d="M482.8,135.3c0.6-1.8,1.1-3.6,1.3-5.1c0.3-3.6,15,0.9,15,0.9s-0.5,2.2-0.9,4.7
				C493.2,137.7,486.7,137.2,482.8,135.3z"/>
		</g>
		<g>
			<path class="st10" d="M474.8,104.7c-3.4-0.3-5.7,2.7-6,6.1c-0.3,3.4,1.4,6.1,4.8,6.5c3.3,0.3,6.1-2.1,6.4-5.5
				C480.3,108.3,478.1,105,474.8,104.7z"/>
			<g>
				<path class="st1" d="M514.2,84.8c-11.1-7.5-26-0.7-34.5,11.8c-8.6,12.5-5,28.2,2.7,34c10.5,7.9,26,3.8,34.6-8.8
					C525.6,109.3,525.3,92.3,514.2,84.8z"/>
				<path class="st10" d="M475.9,104.7c0.8-2.8,2.1-5.5,3.8-8.1c8.6-12.5,23.5-19.4,34.5-11.8c10.8,7.4,11.3,23.8,3.3,36.3
					c-4.7,3.1-8.7,5.6-8.7,5.6s3.8-11.7,1.6-15.3c-2.3-3.6-2.4-10-1.7-13.6c0,0-6.1,0.7-11.9-2.2c-5.8-2.9-17.6,2.7-20.4,9.7
					C475.5,107.7,475.5,106.8,475.9,104.7L475.9,104.7z"/>
			</g>
			<path class="st1" d="M518.4,121.8c-2.9-2-6.3-0.7-8.2,2c-1.8,2.7-1.6,5.8,1.3,7.8c2.8,2,6.5,1.4,8.3-1.3
				C521.7,127.6,521.3,123.8,518.4,121.8z"/>
			<g>
				<path class="st11" d="M503.2,111.4c0.7,0.1,1.2,1,1,2c-0.2,1-0.9,1.7-1.6,1.6c-0.7-0.1-1.2-1-1-2
					C501.8,112,502.5,111.3,503.2,111.4L503.2,111.4z"/>
				<path class="st11" d="M486.5,106.8c0.7,0.1,1.2,1,1,2c-0.2,1-0.9,1.7-1.6,1.6c-0.7-0.1-1.2-1-1-2
					C485.1,107.5,485.8,106.7,486.5,106.8z"/>
				<path class="st11" d="M487.4,100.1c-2.5-0.1-5.5,1.4-5.3,2c0.2,0.6,2.5-1.1,5-1.1c2.5,0.1,4.3,3.3,4.3,2.6
					C491.4,103,489.9,100.1,487.4,100.1z"/>
				<path class="st11" d="M506.4,106.8c2.1,1.3,2.8,4,2.4,4.4c-0.5,0.4-0.8-2.3-2.9-3.6c-2.1-1.3-6,0.4-5.7-0.2
					C500.4,106.8,504.3,105.5,506.4,106.8z"/>
				<g>
					<path class="st12" d="M492.6,127.7c4.5,0.2,5.7-9.2,5.5-9.2c-0.7,0-1.9,0.2-5.1,0c-2.5-0.2-4.5-0.7-5.5-1.1
						C487.1,117.3,487.9,127.5,492.6,127.7L492.6,127.7z"/>
					<path class="st13" d="M488.3,123.1c2.7-1.1,5.8-1.1,8.8,0c-0.8,2.4-2.3,4.8-4.6,4.7C490.5,127.6,489.1,125.4,488.3,123.1
						L488.3,123.1z"/>
				</g>
				<path class="st14" d="M494.8,114.2c1-2.3-0.7-5.7-0.7-5.7s-5.7,3.5-4.7,5.6C491,117.4,494.2,115.3,494.8,114.2z"/>
			</g>
			<g>
				<path class="st15" d="M511.7,92.3c0,0-1.8,5.3-1.6,11.8c0.2,7.8,4.4,8.2,1.1,16.3c-1.2,3-1.7,1.7-5.9,8.9
					c-3,5.2-2.8,10.1-2.8,10.1s2.4-5,7-10.7c3.8-4.7,11.5-7.6,14.9-14.5c5.2-10.5,4.1-15.4-0.2-24.5c-2.5-5.4-7.1-5.8-7.1-5.8
					c-3-12.3-16.8-14.1-30.7-6.1c-5.2,3-10.9,7.2-12.9,16.2c-1.3,6-0.4,10-0.4,13.9c-0.2,15.4-6.6,20-6.6,20s6.6-3.3,8.5-7
					c5.3-10.6,0.4-9,5.9-23c2-5.1,7.4-5.9,13.2-5.6c5.9,0.3,6.7,1.3,11.3,1.4C508.9,93.8,511.7,92.3,511.7,92.3L511.7,92.3z"/>
				<path class="st2" d="M527,96.6c1.6,5.4,1.1,10-2.6,17.6c-3.4,6.9-11.1,9.8-14.9,14.5c-4.6,5.7-7,10.7-7,10.7s-0.3-4.9,2.8-10.1
					c4.2-7.2,4.7-5.9,5.9-8.9c3.3-8.1-0.9-8.5-1.1-16.3c0-0.8,0-1.6,0-2.4C516.4,100,522.2,98.2,527,96.6L527,96.6z M478.3,106.4
					c-1,5.5,0.5,6.7-3.3,14.4c-1.9,3.7-8.5,7-8.5,7s6.4-4.6,6.6-20c0-0.6,0-1.2,0-1.8C474.8,106.3,476.5,106.4,478.3,106.4
					L478.3,106.4z"/>
			</g>
		</g>
	</g>
</g>
<g>
	<g>
		<g>
			<path class="st16" d="M326.8,436.2c4.3,1.7,5.3,1.2,1.6,10.5c-3.7,9.2-12.4,21.4-14.5,21.3c-3.3-0.1-4-6.2-2-15.7
				C314,442.6,322.5,434.5,326.8,436.2z"/>
			<path class="st17" d="M310.9,459c0.2-2,0.5-4.2,1.1-6.7c2.1-9.7,10.6-17.8,14.9-16.1c0.5,0.2,1,0.4,1.4,0.6
				C324.8,444.9,317.8,459.3,310.9,459L310.9,459z"/>
		</g>
		<g>
			<path class="st16" d="M352.5,337.5c4.1-2.1,4.4-3.2,9,5.6c4.6,8.8,8.1,23.3,6.7,24.9c-2.2,2.5-7.3-1-13.2-8.8
				C349.1,351.3,348.5,339.6,352.5,337.5L352.5,337.5z"/>
			<path class="st17" d="M359.4,364.4c-1.4-1.4-2.9-3.1-4.4-5.1c-6-7.9-6.6-19.6-2.5-21.8c0.5-0.3,1-0.5,1.4-0.7
				C357.8,344.6,364.2,359.3,359.4,364.4z"/>
		</g>
		<g>
			<path class="st4" d="M347.9,285.8c0,0,5.5,22-11.5,54.5c0,0-5.3,9.2,3.5,3.9c8.8-5.3,11.5-5.8,11.5-5.8c1.6,5.4,2.3,11,1.2,16.9
				c0,0-27.9,23.8-36.3,23c0,0,0,35,12.6,59c-4.2,4.5-9,7-14.3,7.6c-6.2-8.6-42.2-90.5-18-168.3L347.9,285.8L347.9,285.8z"/>
			<path class="st5" d="M292.7,291.7c1.1-5,2.4-10,4-15l51.3,9.2c0,0,0.9,3.5,0.8,9.8C338.5,297.5,313.7,300.6,292.7,291.7
				L292.7,291.7z"/>
			<path class="st5" d="M316.4,379.7c-5.9-2-6.9-5.2-6.9-14.3c0.1-10.4,1.9-19.6,4-29.2c2-9.4,2.8-13.2,1.5-15.4
				c-1.3-2.1-2.6-2.3-6.1-5.3c-2-1.6-5.1-5-4.5-4.4c0.8,0.7,4.9,3.1,8.8,4.9c2.6,1.2,5.6,2.1,5.7,2.3c0.1,0.3-4.6,17.9-6.4,28.1
				c-1.8,10.4-3.5,26.3,0.1,29.2c1.2,1,2.3,2,3.8,2.6C316.4,378.4,316.4,378.9,316.4,379.7L316.4,379.7z"/>
		</g>
	</g>
	<g>
		<path class="st17" d="M371.9,241.3c0,0,2.9,14.8,5.8,14.8c2.8,0,16-19.2,19-22l8.5,5.8c0,0-26,39.8-32.1,40.1
			c-6.1,0.3-21.9-23.1-20.3-36.5C354.4,230.2,371.9,241.3,371.9,241.3L371.9,241.3z"/>
		<path class="st18" d="M355.4,257.8c-2-5.1-3.2-10.2-2.7-14.3c1.6-13.4,19.1-2.2,19.1-2.2s0.8,4.2,2,8.1c-0.8,0.4-1.4,0.8-1.8,1.4
			c-1.5,2.3-1.1,3.9-5.6,3.5c-4.5-0.4-8.6-0.2-9.6,0.9C356.3,255.9,355.8,256.8,355.4,257.8z"/>
		<path class="st17" d="M403.4,241.5c-1.9,0.5-7.2-0.6-7.4-9.1c-0.1-2.9,1.5-3.5,0.7-8.4c-0.1-0.8-0.2-2.9,0.6-3.5
			c1.7-1.1,3.7,6,3.7,6c0.3,0,6.3-7,8.2-6.5c2.2,0.6-2.7,7-2.4,7.1c0.3,0.2,6.2-4.9,8.1-3c1.3,1.3-4.9,6.5-4.8,6.7
			c0,0.1,7.2-1.7,7.7,0.2c0.4,2-5.3,3.2-6.5,4.4c-0.1,0.1,5.9,0.8,5.5,2.3c-0.3,0.9-4.9,1.5-5.6,1.7
			C408.2,240.5,406.5,240.8,403.4,241.5L403.4,241.5z"/>
	</g>
	<g>
		<path class="st17" d="M298.1,211.8c0,0-16.7,16.1-19.1,15.1c-2.5-1-16.9-28.3-18-28.5c-3.4-0.7-6.1,6-6.1,6s12.4,45.2,24.2,41.8
			c11.9-3.5,28.6-17.7,31.7-21.5C313.8,220.8,298.1,211.8,298.1,211.8z"/>
		<path class="st18" d="M290.4,218.8c4.1-3.6,7.7-7.1,7.7-7.1s15.7,9.1,12.7,12.9c-1.2,1.4-4.3,4.4-8.4,7.7c0.1-1.3-0.1-2.7-1.1-3.5
			c-1.4-1.1-2.8-0.7-4.4-2.2c-1.6-1.5-1.1-5.1-3.4-5.3C292.4,221.2,291.3,220.1,290.4,218.8z"/>
		<path class="st17" d="M255.1,204.8c1.8,0.6,7.2-0.2,7.9-8.6c0.3-2.8-1.2-3.6-0.2-8.5c0.2-0.8,0.4-2.9-0.4-3.5
			c-1.7-1.2-4.1,5.7-4.1,5.7c-0.3-0.1-5.8-7.4-7.7-7c-2.2,0.4,2.2,7.1,1.9,7.3c-0.3,0.2-5.9-5.3-7.9-3.5c-1.4,1.2,4.4,6.8,4.3,7
			c0,0.1-7.1-2.2-7.7-0.3c-0.6,1.9,5.1,3.5,6.2,4.8c0.1,0.1-6,0.4-5.6,2c0.2,0.9,4.8,1.8,5.5,2.1
			C250.4,203.4,252.1,203.8,255.1,204.8L255.1,204.8z"/>
	</g>
	<g>
		<path class="st19" d="M350.6,248.5c-0.1,0,0.5,4.3,0.6,4.3c0.1,0,1.5-1,2-1.1c1.5-0.2,2.6,1.6,4.1,1.2c1.6-0.4,2.7-2.1,4.4-2.5
			c2.3-0.6,4.6,0.5,6.9,0c1.7-0.3,2.3-1.7,3.7-2.4c1.5-0.8,3.4-0.3,5-1c0.4-0.2,1.6-0.7,1.6-1.3c0-0.3-0.9-0.6-1.1-0.7
			c-1.3-0.6-2.7-1.1-4-1.8c-0.7-0.4-1.3-0.8-1.9-1.3c-0.2-0.2-0.5-0.6-0.8-0.7c-0.6-0.1-1.8,0.7-2.3,0.9c-2.1,0.8-4.3,1.5-6.5,2.2
			C358.8,245.6,350.6,248.5,350.6,248.5L350.6,248.5z"/>
		<path class="st19" d="M306.1,223.9c3.2,4.4,0,7.1-3.9,2.1c-0.9-1.2-2.6-1-3.9-1.8c-1.5-0.9-0.8-2.8-1.4-4.2
			c-0.6-1.4-2.2-1.7-2.9-3c-0.6-1.1-0.1-2.3-0.2-3.4c-0.1-0.8-2.4-2.4-1.3-3.3c0.3-0.2,0.8,0.1,1.1,0.2c1.1,0.5,2.1,1.1,3.2,1.7
			c1.6,0.8,3.4,1.4,4.7,2.7c1,0.9,1.5,2.1,2.1,3.3C304.7,220,305.7,221.7,306.1,223.9z"/>
		<path class="st16" d="M326.4,193.6c9.9,0.1,37.7,17.7,42.6,26.7c2,3.8,6.4,21.7,4.6,23.2c-4.4,3.7-22.9,6.4-22.9,6.4
			s-0.9,9.5-1.9,16.6c-1,7.3,1.8,22.1,1.4,25.1c-1.2,7.1-57.8-0.4-56.9-6.8c0.2-1.8,1.9-16.9,4-29.3c3.3-19.2,9.3-28,7.8-29.2
			c-2.4-1.9-12-12.8-9.3-15.6C301,205.4,314.9,193.5,326.4,193.6L326.4,193.6z"/>
		<path class="st19" d="M326.2,194.2c-0.7-0.6-3.2-3.3-4.1-2.2c-1.2,1.5-1.3,3.9-0.5,5.7c0.4,0.8,1.5,1.8,1.4,2.8
			c-0.1,1.7-1.7,3-1.3,4.9c0.4,2,2.9,2.5,3.4,4.5c0.4,1.8-0.5,4.3,0.8,5.9c2,2.4,6,0.7,8.6,1.6c2.3,0.8,3,3.8,5.2,4.8
			c2.9,1.4,4.5-1.5,7.1-1.5c2.7,0,5.1,2,7.8,1.5c1.8-0.3,2.1-2.1,3.6-2.8c1.9-0.8,4.3,0.6,6.1-0.3c1-0.5,0.9-2.2,1.9-2.8
			c1-0.6,2-2,1.4-1.9c-2.1,0.2-5.1-0.5-6.9-1.7"/>
		<path class="st17" d="M325.1,193.7c0.4,0,0.9,0,1.3,0c7.8,0.1,26.9,11.1,36.9,20.1c-7.5,3.1-20.5,6-29.6,0.4
			C324.5,208.6,323.6,198.5,325.1,193.7z"/>
		<path class="st20" d="M350.6,249.6c0,0-0.3-3.1-0.5-5.6c-0.3-3.4-0.8-8.7-0.8-12.2c0-1.2-0.5,3.4-0.6,4.7
			C348.3,239.8,348.3,247.6,350.6,249.6z"/>
		<path class="st20" d="M348.7,269.4c-0.2,7.8,2,19.5,1.6,22.2c-1.2,7.1-57.8-0.4-56.9-6.8c0.1-0.5,0.3-2.3,0.6-4.9
			c9.1,1.6,18.2,1.3,27.3,0c7.9-1.1,15.3-3.7,22.3-7.5C345.4,271.4,347,270.4,348.7,269.4L348.7,269.4z"/>
		<path class="st20" d="M302.4,223.3c1-5.3,4.1-8.5,7.9-12.4c1.3-1.3,5.2-4.6,4.7-3.9c-1.7,2.2-3,4.5-4.3,6.9c-2.2,4.1-3.5,8.6-5,13
			c-0.1,0.3-0.2,0.5-0.3,0.8c0.2-0.8,0.2-1.3-0.1-1.5C304.6,225.7,303.6,224.6,302.4,223.3L302.4,223.3z"/>
	</g>
	<g>
		<g>
			<path class="st17" d="M354.4,192.5c-2.1,4.1-2.2,8.8-2.3,13.8c0,0-4.5,7.1-15.1,6.7c-5-0.2-3.8-10.6-3.8-10.6
				c2.6-3.6,4.8-7.5,7-12L354.4,192.5L354.4,192.5z"/>
			<path class="st18" d="M338,194.7c0.7-1.4,1.5-2.8,2.2-4.3l14.3,2.2c-0.7,1.3-1.1,2.7-1.4,4.1C345.6,198.1,340.7,196.3,338,194.7z
				"/>
		</g>
		<path class="st18" d="M331.2,169c-3.1-0.1-5.1,2.7-5.2,5.8c-0.1,3.1,1.5,5.5,4.7,5.7c3,0.2,5.5-2.2,5.7-5.3
			C336.4,172.1,334.3,169.2,331.2,169z"/>
		<g>
			<path class="st17" d="M366.4,149.3c-10.4-6.4-23.5,0.3-30.8,12.1c-7.3,11.8-3.8,28,5.1,32.6c7.6,3.9,22.4,0.8,29.7-11
				C377.8,171.2,376.8,155.7,366.4,149.3z"/>
			<path class="st18" d="M333.1,166.7c0.6-1.8,1.4-3.6,2.5-5.3c7.3-11.8,20.4-18.6,30.8-12.1c10.4,6.4,11.4,21.9,4,33.7
				c-0.2,0.3-0.4,0.6-0.5,0.8c-3.7,1.3-6.2,1.6-6.4,1.5c0,0-0.2-6.1,1.9-10.2c2.1-4.1-0.9-7.1-0.1-11c0.5-2.2,0.8-3,0.9-3.2
				c0.1,0,0.1-0.1,0.1-0.1s0-0.1-0.1,0.1c-1,0.4-6.6,2.4-9.8-2c-3.5-4.9-3.9-4-6.1-1.8c-2.2,2.2-8.8,5.6-11,5.6
				C338,162.7,335.2,164.7,333.1,166.7z"/>
		</g>
		<g>
			<path class="st11" d="M342.5,161.7c-2.3-0.2-4.4,1.3-4.2,1.8c0.1,0.5,1.6-1.1,3.9-0.9c2.3,0.2,4.3,3.6,4.3,3
				C346.6,165,344.8,161.9,342.5,161.7z"/>
			<path class="st11" d="M360.9,168.1c2,1.1,3.4,3.9,3,4.3c-0.4,0.4-1.3-2.2-3.3-3.3c-2-1.1-5.3,0.8-5.1,0.3
				C355.8,168.9,358.9,167,360.9,168.1z"/>
			<path class="st11" d="M358.1,173.6c2,1.1,2.7,3.3,2.3,3.7c-0.4,0.4-0.7-1.8-2.7-2.8c-2-1.1-4.2,0.6-3.9,0.1
				C354,174.1,356.1,172.5,358.1,173.6L358.1,173.6z"/>
			<path class="st11" d="M341.8,168c-2.3-0.3-4.2,1.1-4,1.7c0.1,0.5,1.6-1,3.9-0.7c2.3,0.3,3.1,2.9,3.1,2.4
				C344.8,170.8,344,168.3,341.8,168z"/>
			<g>
				<path class="st21" d="M346.9,189.9c4.4,0.4,5.5-4.9,5.7-7.6c0-0.5-10.1-1.9-10.2-1.4C341.9,182.8,342.2,189.5,346.9,189.9
					L346.9,189.9z"/>
				<path class="st13" d="M342.8,186.3c0.2-0.1,0.4-0.2,0.5-0.2c2.5-1,5.4-0.6,8,1c-0.8,1.7-2.2,3-4.5,2.8
					C344.7,189.7,343.5,188.1,342.8,186.3z"/>
			</g>
			<path class="st22" d="M348.1,178.1c1.3-1.9,1.5-5,0.2-5.7c-1.5-0.8-5.4,2.6-4.6,4.6C344.6,179.5,347.4,179.1,348.1,178.1z"/>
		</g>
		<g>
			<path class="st24" d="M364.5,159.4l3-0.6c0,0-0.8,1.9-0.9,5.2c0,5,1.9,6.7,1.3,9.1c-0.9,4-4.8,6.4-6.1,10.2
				c-1.1,3.3,0.6,3.6-0.3,8.7c-0.8,4.7-3.7,8.1-3.5,8.1c6.2,0.5,3.9,3.7,13.8,2.2c6.5-0.9,7.1-2.5,7.4-3c0.4-0.7-2.2-6.2-1.1-11.2
				c1-4.5,3.7-5.6,4.6-9.2c1.6-5.9-0.9-8.1-1.3-12.4c-0.4-4.2,0.9-8.1-1.8-11.8c-2.4-3.3-7.4-3.2-7.4-3.3
				c-1.7-7.9-8.7-11.3-13.5-13.5c-10.1-4.7-20.4,0.4-25.6,11.7c-0.9,2-3.2,4.5-5.2,5.3c-1.8,0.7-3.8,1.7-5.2,3.2
				c-2.5,2.6-1.3,6.8-2.8,9.8c-1.5,3.2-5.1,2.6-5.8,9c-0.3,3,9.6,11.1,10.1,9.3c0.8-2.9,4.3-8.5,5.8-11c2.4-3.8,3.1-8.4,6-11.9
				c2.4-2.9,5.4-1.8,8.3-3.3c3.2-1.6,4.8-7.9,9.3-6.9c1.9,0.4,2.7,2.7,3.9,4C359.5,159,362,159.6,364.5,159.4L364.5,159.4z"/>
			<path class="st25" d="M383.5,174.3c0.1,1.3,0,2.7-0.5,4.4c-1,3.6-3.6,4.7-4.6,9.2c-1.1,5,1.5,10.5,1.1,11.2c-0.3,0.6-1,2.1-7.4,3
				c-9.9,1.4-7.6-1.7-13.8-2.2c-0.3,0,2.6-3.4,3.5-8.1c0.9-5.1-0.8-5.4,0.3-8.7c1-2.9,3.5-5,5-7.6
				C373,175.3,378.6,174.8,383.5,174.3z M320,167.9c3.5,1.9,7.4,3.4,11.5,4.6c-0.4,0.9-0.8,1.7-1.3,2.6c-1.6,2.5-5,8.1-5.8,11
				c-0.5,1.8-10.5-6.4-10.1-9.3C315,170.4,318.5,170.9,320,167.9z"/>
		</g>
	</g>
	<path class="st26" d="M275.2,290.2C275.3,290.2,275.3,290.2,275.2,290.2"/>
	<path class="st26" d="M228.4,346.4C228.4,346.4,228.4,346.4,228.4,346.4"/>
</g>
<g>
	<g>
		<g>
			<path class="st27" d="M18.8,388.5c0.8,0,6.1,0.1,7.6,2.6c3.9,6.6,4.4,13.7,4,21.4c-0.2,3.3-1.8,9.4-4.1,10.1
				c-1.9,0.5-5.3-5.5-7.6-15.2C16.4,397.7,15.9,388.5,18.8,388.5L18.8,388.5z"/>
			<path class="st28" d="M28.3,420.5c-0.6,1.1-1.3,1.8-2,2c-1.9,0.5-5.3-5.5-7.6-15.2c-2.3-9.7-2.8-18.9,0.1-18.9
				c0.2,0,0.8,0,1.6,0.1C20.5,395.3,21.5,412.6,28.3,420.5L28.3,420.5z"/>
		</g>
		<g>
			<path class="st17" d="M55.5,342.5c0,0,25.2,38.9,16.4,45.3C59.6,396.7,30,405.3,30,405.3c-2.4-1.7-3.6-3.5-5.1-7
				c-0.7-1.6-1.9-7.1-1.4-9.3c0,0,24.8-5,20.8-12.9c-6.4-12.6-12.6-17-12.6-17L55.5,342.5z"/>
			<path class="st18" d="M41,370.2c-5-8-9.2-10.9-9.2-10.9l23.6-16.7c0,0,4.8,7.4,9.4,16.2C58.3,362.8,48.9,367.9,41,370.2z"/>
		</g>
	</g>
	<g>
		<g>
			<path class="st17" d="M-18.6,364.9c0,0,3.7,56.7,17.3,87.5l20.9,8.5c-2.6,0.8-14.3-75.9-10.1-96.5L-18.6,364.9z"/>
			<path class="st18" d="M-16.7,384.8c-1.4-11.8-1.9-20-1.9-20l28.1-0.5c-0.7,3.6-1,8.8-0.9,15C1.6,381.9-8.8,385.1-16.7,384.8
				L-16.7,384.8z"/>
		</g>
		<g>
			<path class="st27" d="M20.2,465.9c0.7-2.3-1.3-8.9-3.6-11.4c-5.9-6.6-13.9-9.6-22.8-9.9c-3.8-0.1-11.4,1.6-13.1,5
				c-1.3,2.7,4.2,8.6,14.3,13.2C5.1,467.2,18.4,471.3,20.2,465.9z"/>
			<path class="st28" d="M-15.8,446.6c2.2-0.4,5.1-0.3,8.9,0.5c13.3,2.9,22,9,26.7,13.8c0.6,2,0.8,4,0.5,5c-1.7,5.5-15,1.4-25.1-3.2
				c-10.1-4.5-15.6-10.4-14.3-13.2C-18.7,448.4-17.4,447.4-15.8,446.6z"/>
			<path class="st29" d="M-17.5,447.6c2.4-0.4,5.7-0.3,10,0.7c14.6,3.6,23.5,10.2,27.7,14.8c0.2,1.1,0.2,2.1,0,2.8
				c-1.7,5.5-15,1.4-25.1-3.2c-10.1-4.5-15.6-10.4-14.3-13.2C-18.9,448.8-18.3,448.2-17.5,447.6z"/>
		</g>
	</g>
	<g>
		<path class="st30" d="M-22,286c-3.3-0.8-5.6,84.7-3.4,87.9c2.4,3.4,40.5,2.4,39.5-3.3c-1.4-7.8-0.9-32.3-0.4-32.5
			c1.1-0.5,17.1,26.5,19,27.5c1.3,0.7,33.9-15,34.5-15.8c0.5-0.7-14.8-23-26.1-41.1c-7-11.3-4.5-20.9-6.5-21.4
			c-3.6-0.7-17.4-1.9-20.9-2.1C2.2,284.7-22,286-22,286z"/>
		<path class="st31" d="M-24.3,299.5c0.7-8.3,1.4-13.7,2.3-13.5c0,0,24.2-1.3,35.7-0.8c3.6,0.2,17.3,1.3,20.9,2.1
			c2,0.4-0.3,9.3,5.8,20C18.2,309.9-11,303.1-24.3,299.5L-24.3,299.5z"/>
		<path class="st31" d="M14.1,338.3c0.4-0.4,0.9-3,1.2-3.5c0.9-1.8,2.1-3.4,3.2-5c0.6-0.8,1.9-2.2,1.9-2.2s0,1,0.1,1.4
			c0.1,1.1,0.3,2.1,0.6,3.1c0.4,1.4,0.8,2.8,1.3,4.1c0.7,1.8,1.4,3.6,2.2,5.4c1.3,3,2.8,5.8,4.5,8.6c2.7,4.4,7,9,11.1,12.1
			c0.1,0.1,0.2,0.1,0.4,0.2c-4.3,1.9-7.4,3.1-7.8,2.9C31,364.6,16.9,341.1,14.1,338.3L14.1,338.3z"/>
	</g>
	<g>
		<path class="st32" d="M32.4,143.2c0,0-1.9-6.1-3.9-6.4c-1.7-0.3-2.1,2.2-2.1,3.4c0,0.1,0.1,1.2,0,1.2c-0.2,0.1-1.2-0.6-1.6-0.5
			c-0.7,0.2-0.8,1.1-1.3,1.2c-0.8,0.3-2.9-2.1-3.5-2.5c-2.3-1.6-5.7-3.2-8.7-3c-2,0.2,0.8,4.4,1.2,5.1c0.2,0.3,1,1.4,0.6,1.7
			c-0.4,0.3-1.5,0.2-1.9,0.4c-1.3,0.3-2.8,0.8-3.7,1.8c-0.8,0.9,0.3,1.4,0.2,2.3c0,0.5-1,0.8-1.2,1.4c-0.1,0.5,0.2,1.5-0.2,1.8
			c-0.9,0.7-2.9,0.8-3.9,1.2c-2.9,1-6.2,2.7-7.4,5.8c-1.1,2.6,2.4,3.2,4.2,3.6c0.3,0.1,2.1,0.2,2.1,0.7c0,0.8-2.2,2.1-2.7,2.8
			c-0.9,1.7,1.9,1.7,1.8,2.1c-0.1,0.7-1.6,1.7-2,2.2c-1.3,1.6-2.9,3.7-3,5.9c-0.1,1.4,1.2,2.1,2.4,2.2c0.3,0,1.3-0.1,1.4,0.3
			c0.3,0.6-1.2,2.5-1.4,3c-0.9,1.9-2.1,4.6-1.4,6.7c0.8,2.4,3.4,2.3,5.4,2.1c0.4,0,2-0.4,2.3-0.1c0.3,0.3-0.3,1.6-0.3,1.9
			c-0.2,1-1.3,4.3-0.3,5.2c0.9,0.8,3.6-1.2,4.3-1.6c0.1,0,1.3-0.9,1.4-0.8c0.2,0.2,0.1,1.7,0.2,2c0.2,1.4,0.2,3.5,1.1,4.7
			c1.1,1.5,3.7-0.2,4.7-0.9c0.2-0.1,0.9-1,1.2-0.8c0.3,0.1,0.3,1.1,0.3,1.3c0.1,0.9,0.4,3.1,1.7,3.3c1.2,0.1,1.7-3,2.7-2.8
			c0.6,0.1,1.4,2.8,1.6,3.3c1.2,2.4,2.8,7.2,6,7.5c2,0.2,1.6-4.3,1.6-5.3c0-0.5,0-1.1,0-1.6c0-0.2-0.3-1.7,0-1.9c0,0,0.7,0.9,0.8,1
			c0.5,0.6,1.6,2,2.5,1.8c1-0.3,0.8-2.3,0.8-2.9c0-0.1-0.1-1.2,0.1-1.2c0.3-0.1,1.3,1.8,1.4,2c0.8,1.1,3.6,5.1,5.4,4
			c2.3-1.3-0.7-5.4,0.4-7.1c0.2-0.3,1.1,0,1.4,0.1c1,0.1,2,0.1,2.8-0.5c0.8-0.6,1.3-1.5,1.6-2.5c0.1-0.3,0.1-1.5,0.3-1.7
			c0.3-0.2,2.5,0.9,2.8,1c2.2,0.4,5.8-1.1,6.4-3.4c0.7-2.5-1.1-5.8-2.6-7.7c-0.6-0.8-1.9-1.6-2.1-2.6c-0.3-1.5,2.3-3.1,2.7-4.5
			c0.2-0.7-0.2-1-0.8-1.1c-0.1,0-0.8-0.1-0.8,0c0,0,0.7-0.3,0.7-0.3c0.5-0.3,1-0.5,1.4-0.8c1.2-0.8,2.8-2,3-3.6
			c0.2-1.3-2.6-1.1-2.4-1.9c0.7-3.8,5.6-7.2,3.9-11.5c-0.8-2.1-4.4-0.8-5.9-0.4c-0.4,0.1-1.9,0.7-2.2,0.3c-0.4-0.6,0.2-2.2,0.3-2.8
			c0.4-1.7,1.1-3.7,0.3-5.4c-1-2.2-3,0.1-4.1-0.8c-0.4-0.3,0.2-1.9-0.1-2.5c-0.5-0.9-2-0.1-2.3-0.7c-0.2-0.5,0.3-1.5,0.4-2
			c0.5-1.9,1.9-4.9,0.5-6.7c-2.7-3.5-6.8,1.4-8.5,3.4c-0.4,0.5-1,1.8-1.7,2c-0.4,0.2-0.1-1-0.1-1.1c0.1-0.7,0.3-2.9-0.6-3.3
			C34.7,139,33,142.4,32.4,143.2z"/>
		<path class="st33" d="M-2.5,170.6c1.1,2.9,3.1,5.1,6.5,1.4c0,0,6.2,17.5,11,10L39,194c0,0,4,8.7,8.3-0.4c0,0,2.8,2.2,6,3.3
			c-1,0.4-2.1,0.5-2.9,0.3c-0.4-0.1-2.6-1.2-2.8-1c-0.2,0.2-0.2,1.4-0.3,1.7c-0.3,1-0.8,1.9-1.6,2.5c-0.9,0.6-1.8,0.7-2.8,0.5
			c-0.3,0-1.2-0.4-1.4-0.1c-1.1,1.6,1.9,5.8-0.4,7.1c-1.8,1-4.6-2.9-5.4-4c-0.2-0.2-1.1-2.1-1.4-2c-0.2,0-0.1,1.1-0.1,1.2
			c0,0.7,0.2,2.7-0.8,2.9c-0.9,0.3-2-1.2-2.5-1.8c-0.1-0.1-0.7-1-0.8-1c-0.2,0.1,0,1.6,0,1.9c0,0.5,0,1.1,0,1.6c0,1,0.4,5.6-1.6,5.3
			c-3.2-0.3-4.8-5.1-6-7.5c-0.2-0.5-1-3.2-1.6-3.3c-1-0.1-1.5,3-2.7,2.8c-1.3-0.1-1.6-2.4-1.7-3.3c0-0.3,0-1.2-0.3-1.3
			c-0.3-0.1-1,0.7-1.2,0.8c-1,0.8-3.6,2.4-4.7,0.9c-0.9-1.2-1-3.2-1.1-4.7c0-0.3,0.1-1.8-0.2-2c-0.1-0.1-1.3,0.8-1.4,0.8
			c-0.7,0.4-3.4,2.4-4.3,1.6c-1-0.9,0.1-4.2,0.3-5.2c0.1-0.3,0.6-1.6,0.3-1.9c-0.3-0.4-1.9,0-2.3,0.1c-2.1,0.2-4.6,0.3-5.4-2.1
			c-0.7-2.2,0.5-4.8,1.4-6.7c0.3-0.5,1.7-2.4,1.4-3c-0.2-0.4-1.1-0.3-1.4-0.3c-1.3-0.1-2.5-0.8-2.4-2.2
			C-4.6,173.8-3.6,172.1-2.5,170.6z"/>
	</g>
	<g>
		<path class="st26" d="M-10.8,178.9c0,0-20.4-44.8-21.9-68.1l-12,7.2c0.1,0.4,4.1,58.5,21.1,75.8L-10.8,178.9z"/>
		<path class="st34" d="M-14.7,170c2.3,5.5,3.9,9,3.9,9l-12.9,14.9c-2.1-2.2-4.1-5-5.8-8.3C-21.1,181.1-16.8,174.6-14.7,170z"/>
		<path class="st17" d="M-45.2,118.2c1.8,1.4,8.3,2.8,12.6-6.5c1.5-3.1,0.1-4.6,3.3-9.7c0.5-0.8,1.6-3.2,1-4.1
			c-1.4-2.1-7,4.8-7.1,4.8c-0.3-0.2-3.6-10.8-5.9-11.2c-2.7-0.4-0.4,9.1-0.8,9.1c-0.4,0.1-4.6-8.5-7.5-7.3c-2,0.8,2.2,9.6,2,9.8
			c-0.1,0.1-7.2-5.4-8.6-3.5c-1.5,2,4.3,6.1,5,8.1c0.1,0.2-7-2-7.2-0.1c-0.2,1.2,4.7,4,5.4,4.6C-50,114.7-48.2,115.9-45.2,118.2z"/>
	</g>
	<g>
		<path class="st26" d="M51.3,255.6c0,0,1.4,7.9,5.3,6.6c4-1.3,23.8-13.7,24.4-14.7c0.6-1,8.3,7.8,8.3,7.8s-32.7,33.7-39.7,32.2
			c-7-1.4-14.5-12.6-15.2-21.7C33.7,256.6,51.3,255.6,51.3,255.6z"/>
		<path class="st34" d="M40.9,281.3c-3.5-4.4-6.2-10.3-6.6-15.6c-0.7-9.2,16.9-10.1,16.9-10.1s0.8,4.9,3.2,6.4
			C48.8,266.5,40.4,274.3,40.9,281.3z"/>
		<path class="st17" d="M86.4,257.9c-2.3,0.3-8.6-1.8-7.6-12c0.3-3.4,2.3-4,2.1-10c0-0.9,0.2-3.6,1.2-4.1c2.3-1.1,3.6,7.7,3.7,7.7
			c0.4,0,8.6-7.5,10.8-6.7c2.5,1-4.2,8-3.9,8.3c0.3,0.3,8.2-5,10.2-2.5c1.3,1.7-6.8,7.2-6.7,7.4c0,0.1,9-1,9.2,1.3
			c0.3,2.4-6.8,3.1-8.4,4.4c-0.1,0.1,7,1.8,6.3,3.6c-0.5,1.1-6.1,1.1-7,1.3C92.4,257.3,90.2,257.4,86.4,257.9L86.4,257.9z"/>
	</g>
	<g>
		<path class="st35" d="M-12.6,170.8c0,0,8.7,10.6,21.1,23.4c6.9,7.1,31.4,23.6,35.8,32c1.7,3.4,10.1,32.2,10.1,32.9
			c0.3,3.6-15.6,7.9-15.6,7.9c-1.4-0.5-0.1,33.8-0.1,35c0.3,5.5-65.6-5.5-64.1-9.4c0.3-0.8,0.5-14.4,2.1-30.6
			c1.6-16,5.9-35,6.3-39.2c0.2-2.9-13.1-29.7-12.1-30.5C-21.8,186.2-17.2,180-12.6,170.8L-12.6,170.8z"/>
		<path class="st36" d="M38.8,267.1c0-1.4,0-2.7,0-4.1c0.1-2.8-0.1-5.5,0-8.3c0.1-4,0.7-8.1,1.1-12.1c0.3-2.8,0.9-5.7,1.7-8.4
			c0.3-0.9,0.6-1.8,0.9-2.7c0.1-0.3,0.2-0.6,0.3-0.9c0.1-0.2,0.2-0.7,0.2-0.5c-0.1,1.9-0.6,3.8-0.7,5.6c-0.3,3.6-0.3,7.3-0.1,10.9
			c0.2,3.3,0.4,6.6,1.5,9.7c0.3,0.8,0.6,1.7,1.6,1.9c0.5,0.1,1.8-0.3,2.1,0.1c0.4,0.5,0,1.9-0.1,2.4c-0.1,1,0.1,2.2,0.5,3.2
			c-4.2,1.7-8.9,3-8.9,3C38.8,267,38.8,267,38.8,267.1L38.8,267.1z"/>
		<path class="st36" d="M-15.6,222.3c0,0,14.6-5,23.7-17.4C8.1,204.9,1.9,219.2-15.6,222.3z"/>
		<path class="st36" d="M-22.7,257.7c9.5,9.5,36.7,34.4,61.2,35.8c0.1,4.6,0.3,8.1,0.3,8.5c0.3,5.5-65.6-5.5-64.1-9.4
			c0.3-0.8,0.5-14.4,2.1-30.6C-23,260.5-22.9,259.1-22.7,257.7z"/>
	</g>
	<g>
		<path class="st26" d="M9.3,195c4.9,4.7,16,12.8,24.5,20.1c-5.1,8.1-12.3,14.6-14.4,7.4C17.4,215,12.5,202.8,9.3,195z"/>
		<g>
			<path class="st17" d="M15.5,189.3c-0.5,4.5-0.7,5.4-2.4,9.2c0,0,5.4,13.4,9,22.5c1.8,4.5,9.8-7.4,9.8-7.4
				c-2-4.3-2.3-10.7-1.7-15.6L15.5,189.3z"/>
			<path class="st18" d="M13.8,197c1.1-2.6,1.3-3.9,1.7-7.6l14.7,8.8c-0.3,2.6-0.4,5.7-0.1,8.6C23.8,205.8,17.8,200.9,13.8,197z"/>
		</g>
		<g>
			<path class="st18" d="M48.6,184.1c2.6,1.5,2.9,4.8,1.4,7.5c-1.5,2.7-4.1,3.8-6.8,2.4c-2.6-1.4-3.5-4.6-2-7.3
				C42.7,184,46,182.6,48.6,184.1z"/>
			<path class="st17" d="M29.3,149.7c12-0.1,19.4,12.3,19.5,25.8c0.1,13.6-10.2,23.5-18.8,24C18.2,200,8.8,189.3,8.7,175.7
				C8.7,162.1,17.4,149.7,29.3,149.7z"/>
			<path class="st17" d="M7.6,176.4c3.1,0,5,2.6,5,5.6c0,2.9-1.7,5.1-4.9,5.2c-3,0.1-5.5-2.2-5.5-5.1C2.3,179.1,4.5,176.4,7.6,176.4
				z"/>
			<g>
				<path class="st11" d="M41.9,171.2c2.1,0.7,4.2,2.9,3.9,3.3c-0.3,0.4-1.7-1.7-3.9-2.4c-2.1-0.7-4.6,1.5-4.4,0.9
					C37.6,172.5,39.7,170.5,41.9,171.2z"/>
				<path class="st11" d="M24.1,166.1c-2.2-0.1-4.1,1.6-3.9,2.1c0.2,0.5,1.7-1.3,3.9-1.2c2.2,0.1,4.3,3.2,4.4,2.6
					C28.5,169,26.4,166.1,24.1,166.1z"/>
				<g>
					<path class="st21" d="M25.8,192.2c-3.7-2.2-4.4-5.7-3.2-8.1c0.2-0.4,4.3,0.8,6.3,1.3c2,0.5,6.1,1.9,6,2.4
						C34.3,189.7,30.6,195,25.8,192.2z"/>
					<path class="st13" d="M22.4,188.3c0.3,0,0.7,0,1,0c2.6,0.1,5.2,1,7.1,2.8c0.3,0.3,0.6,0.6,0.9,1c-1.5,1-3.5,1.3-5.6,0.1
						C24,191.2,22.9,189.7,22.4,188.3z"/>
				</g>
				<path class="st22" d="M29.5,180c0.4-2.2,2-3.7,3.3-3.3c1.6,0.5,2.5,4.9,0.7,5.9C30.7,184.2,29.4,181.1,29.5,180z"/>
				<path class="st11" d="M40.4,176.6c0.7,0.2,0.9,1.3,0.6,2.4c-0.4,1.1-1.2,1.8-1.9,1.6c-0.7-0.2-0.9-1.3-0.6-2.4
					C38.9,177.1,39.7,176.4,40.4,176.6z"/>
				<path class="st11" d="M24.5,172.7c0.7,0,1.3,1,1.2,2.2c-0.1,1.2-0.7,2.1-1.4,2c-0.7,0-1.3-1-1.2-2.2
					C23.2,173.5,23.8,172.6,24.5,172.7z"/>
			</g>
			<path class="st18" d="M8.8,177.4c0-0.6-0.1-1.2-0.1-1.7c-0.1-13.6,8.6-26,20.6-26c11.5-0.1,18.9,11.4,19.4,24.4
				c-2.5-0.5-2.5-3.7-2.5-3.7c-0.9,2.3-2.7-1.9-2.7-1.9c1,8.2-6.7-4.5-6.7-4.5c0.8,7.2-6.2-2.4-6.2-2.4c-0.4,7.3-7.1-1.4-7.1-1.4
				c-9.9,13.9-6.3,4.4-7.7,5.7c-1.4,1.3-5.8,12.8-5.8,12.8L8.8,177.4z"/>
			<path class="st32" d="M9.8,181.4c0.4-0.6,0.8-4.9,2-8.6c2.5-7.8,5.8-12.6,5.8-12.6s-0.8,3.1-0.9,3.8c0,0.3-0.3,1.8,0.3,1.7
				c0.7-0.1,1.2-0.9,1.6-1.3c1.5-1.7,2.7-3.6,4-5.5c0.2-0.3,1.4-2.7,1.9-2.7c0.1,0,0.5,1.7,0.5,1.8c0.3,1.2,0.9,3.7,2.4,4.1
				c1.6,0.4,1.9-3.7,3.1-3.3c0.5,0.2,0.6,1.4,0.7,1.8c0.4,1.2,2,3.5,3.5,3.3c0.9-0.1,1.3-1.3,1.5-2c0.1-0.4-0.1-1.3,0.2-1.1
				c0.5,0.3,0.7,1.6,1,2.1c0.8,1.8,1.7,3.5,3.1,5c0.3,0.3,0.9,1.2,1.5,1.3c0.3,0,0.4-1.6,0.5-1.7c0.2-1.5,0-3.8,0.7-5.2
				c0.1-0.1,0.6,3.7,0.9,4.7c0.2,0.7,0.9,1.7,1.8,1.5c0.2,0,1.4-0.8,1.5-0.6c0.6,0.9,0,2.8,0.1,3.8c0.2,1.3,1.5,1.7,1.8,2.6
				c0.5,1.4-0.1,3.7-0.4,5c-0.3,1.4-0.5,2.9-1.1,4.2c-0.2,0.4-0.4,1.3-0.4,1.3c0,0,0.6-0.7,0.7-0.7c0.3-0.5,0.6-0.9,0.9-1.4
				c1-1.6,1.3-4,1.7-5.8c1.4-6.2,1.3-14.3-1.8-20c-4.2-7.8-16.1-11.6-24.4-8.9c-4.5,1.4-9.1,4-11.5,8.1C4.2,171,9.8,181.4,9.8,181.4
				L9.8,181.4z"/>
		</g>
	</g>
	<path class="st23" d="M34.6,182L34.6,182"/>
	<path class="st26" d="M105.8,300.8C105.8,300.8,105.8,300.8,105.8,300.8"/>
</g>
<g>
	<g>
		<g>
			<path class="st27" d="M149,333.3c2.4,3.1,0.9,11.4-5.5,19.1c-6.4,7.7-15.1,8.4-18.2,6c-1.5-1.2,1.8-6.7,8.2-14.4
				C139.9,336.2,147.2,331,149,333.3z"/>
			<path class="st28" d="M149,333.3c0,0-6.6,3.5-13.1,11.2c-8,9.4-10.6,13.8-10.6,13.8c-1.5-1.2,1.8-6.7,8.2-14.4
				C139.9,336.2,147.2,331,149,333.3z"/>
		</g>
		<g>
			<path class="st27" d="M215,423.2c0.7-0.6,2.2-3.4,3.4-3.6c4-0.5,10.9,2.6,16.9,7.5c2.9,2.3,3.7,6.3,4.9,8.8
				c2,4.4,1.8,8.6,0.3,10.5c-1.2,1.6-6.8-1.7-14.6-8C218.1,432.2,212.7,425,215,423.2z"/>
			<path class="st28" d="M215,423.2c0,0,3.7,6.5,11.4,12.9c9.6,7.9,14,10.3,14,10.3c-1.2,1.6-6.8-1.7-14.6-8
				C218.1,432.2,212.7,425,215,423.2L215,423.2z"/>
		</g>
		<g>
			<path class="st37" d="M179.6,270.6c-0.2,1.9,1.5,14.3,1.8,19c1,12.8,3.7,37.8-1,50.1c-3.9,10.1-29.5-5.5-30.5-4.9
				c-1,0.6-7.6,17.4-6.9,18.3c4.1,5.3,13.7,9.1,19.5,11.8c7.7,3.7,19.9,7.5,28.6,3.6c6.8-3,11.3-8.4,16-23.1
				c6.2-19.4,8.3-45.5,8.3-45.5s7.3,34.4,7.4,64.9c0.1,28.3-6.2,54.9-5.8,55.7c1.2,2.2,17.8,9.3,19.9,8.5c1.6-0.6,7-31.2,8.1-42.4
				c3.2-34.2,5.2-71.1-0.4-105.2c-1.4-8.7-6.9-33.8-8.7-35.3C235.1,245.5,179.7,270,179.6,270.6L179.6,270.6z"/>
			<path class="st38" d="M180.7,282.8c-0.6-5.1-1.3-10.9-1.1-12.2c0.1-0.6,55.5-25.1,56.3-24.5c0.7,0.6,2.1,5.2,3.6,11
				C224.2,267.5,193.7,278.4,180.7,282.8z"/>
			<path class="st39" d="M219.1,283.2c1.9-1.1,3.5-3.5,3.6-6.1c0.4-7.5-3.4-18.3-3.4-18.3c-0.1-0.4,0.1-0.8,0.4-0.9
				c0.4-0.1,0.8,0.1,0.9,0.4c0,0,3.9,11.1,3.5,18.8c-0.2,3.5-2.3,6.7-4.8,7.8l0,0.1c0.6,5,0.8,9.8,0.1,13.1
				c-0.1,0.4-0.5,0.6-0.8,0.5c-0.4-0.1-0.6-0.5-0.5-0.8c0.7-3.2,0.5-7.8-0.2-12.6c-1.5-11.5-5.2-24.4-5.2-24.4
				c-0.1-0.4,0.1-0.8,0.5-0.9c0.4-0.1,0.8,0.1,0.9,0.5C214.1,260.5,217.5,272.2,219.1,283.2L219.1,283.2z"/>
			<path class="st38" d="M215.5,301.1l-0.2-1.2c0,0,6-4.2,8.6-9.2c2.1-4.2,5.9,61.9-1.9,92.3c0.5-5.8,0.8-12,0.7-18.3
				C222.6,337.7,216.9,307.6,215.5,301.1z"/>
		</g>
	</g>
	<g>
		<path class="st1" d="M197.7,143.7c7.6-6.6,25.6-78.5,24.9-81.4c-0.5-1.9,13.1,5.2,14.1,6.2c2.2,2.3-8,67.2-18.7,85.8
			C215.1,159.4,195.8,145.3,197.7,143.7z"/>
		<path class="st10" d="M204.3,130.2c5.3,3.2,13,7.4,19.5,9.5c-1.9,6-3.9,11.2-5.9,14.7c-2.9,5-22.1-9-20.3-10.6
			C199.5,142.2,201.8,137.1,204.3,130.2L204.3,130.2z"/>
		<path class="st1" d="M236.7,70.9c0,0-13.9-5.3-14.2-5.6c-2.3-2.1-3-4.7-5-7c-0.6-0.7-2.3-2.8-1.9-3.9c0.9-2.4,7.7,2.7,7.7,2.6
			c0.3-0.3,1.5-10.9,3.7-11.7c2.6-1,2.4,8.9,2.8,8.8c0.4,0,2.7-9.3,5.9-8.8c2.2,0.4-0.1,10,0.1,10.1c0.1,0.1,6-6.9,7.7-5.3
			c1.9,1.6-3,7-3.3,9c0,0.2,6.5-3.5,7.1-1.6c0.4,1.1-3.8,5-4.4,5.7C240.8,66.3,239.2,67.9,236.7,70.9L236.7,70.9z"/>
	</g>
	<g>
		<path class="st1" d="M140.8,221.4c0,0-8.5-19-8.6-18.9c-1.7,0.7-15.7,6.2-19.8,4c-11.8-6.3-16.4-26.9-20.7-31
			c-2.2-2.1-16.1-5.1-13,4.6c4.7,14.4,16.4,44.8,26.1,47.6C116.2,230.9,130.7,226.4,140.8,221.4z"/>
		<path class="st10" d="M120.7,206.2c5.1-1.2,10.5-3.3,11.5-3.7c0.1-0.1,8.6,18.9,8.6,18.9c-6,3-13.6,5.8-21.2,6.9
			C122.9,220.9,122,212.2,120.7,206.2z"/>
		<path class="st1" d="M81.2,187.1c0,0,11.2-9.7,11.4-10.1c1.4-2.7,1.2-5.4,2.3-8.3c0.3-0.9,1.2-3.4,0.5-4.3
			c-1.7-1.9-6.3,5.1-6.4,5.1c-0.3-0.2-5.1-9.7-7.5-9.8c-2.7-0.1,0.8,9.1,0.4,9.2c-0.4,0.1-5.7-7.9-8.5-6.3c-1.9,1.1,3.5,9.3,3.3,9.5
			c-0.1,0.1-8-4.5-9.1-2.4c-1.2,2.2,5.2,5.6,6.1,7.4c0.1,0.2-7.3-1.1-7.3,0.9c0,1.2,5.2,3.4,6.1,3.9
			C75.9,184.2,77.8,185.1,81.2,187.1z"/>
	</g>
	<g>
		<path class="st40" d="M160,186.5c0,0,14.1-10.4,20.9-18.5c6.8-8.2,17.2-34.6,19.2-34.9c1.6-0.3,23.3,11.9,25.1,15.5
			c0.3,0.5-2,11.8-4.2,20.4c-1.9,7.4-4.3,16.2-4,16.8c3.6,6.4,25,68.2,22,68.3c-2.9,0-58.6,26.7-60.1,24
			c-0.4-0.8-12.4-52.6-14.6-53.6c-1-0.5-26,6.4-32.2,5.3c-0.9-0.2-11.1-25.2-10.1-25.6C127,202.4,151.4,192.8,160,186.5z"/>
		<path class="st41" d="M236.7,241.8c2.1,7.2,3.2,12.2,2.3,12.2c-2.9,0-58.6,26.7-60.1,24c-0.3-0.5-5-20.7-9.1-36.2
			C182.2,246.6,212.8,256.1,236.7,241.8L236.7,241.8z"/>
		<g>
			<path class="st42" d="M127.5,202.1c1.8,5.3,4.9,13.6,7.9,20.3c1.2,2.8,2.5,5.3,3.6,7.1c-1.4,0.2-2.6,0.3-3.7,0.4
				c-1-1.7-2-3.8-3-6.1c-3-6.7-6.1-15.1-7.9-20.4C125.2,202.9,126.3,202.5,127.5,202.1L127.5,202.1z M198.7,134.6
				c5.1,3.1,17.4,10.7,25.9,17.7c-0.2,1.1-0.5,2.4-0.7,3.8c-8.1-7.2-21.4-15.3-26.8-18.5C197.7,136.4,198.3,135.4,198.7,134.6
				L198.7,134.6z"/>
			<path class="st42" d="M182.7,165.4c4.1,2.4,6.8,6.8,7.8,11.6c1.3,6.1-0.2,12.6-4.3,15.8c-4.6,3.6-10.2,3.2-15.3,1.4
				c-5.2-1.9-9.7-5.4-11.8-7.1c0.3-0.2,0.6-0.4,0.8-0.6c0,0,0.8-0.6,2-1.5c2.1,1.7,5.9,4.4,10.2,6c4,1.5,8.4,2,12-0.8
				c3.2-2.5,4.1-7.6,3.1-12.4c-0.8-4-3-7.7-6.5-9.6l0.2-0.2C181.4,167.3,182.1,166.4,182.7,165.4L182.7,165.4z"/>
		</g>
	</g>
	<g>
		<path class="st1" d="M159.5,171.9c1.9,4.1,4.3,8.2,4.7,12.4c0,0,9.2,7.4,17.7,1.9c4.7-3,1.2-12.8,1.2-12.8c-3.9-2.8-6-6.1-8-10.7
			L159.5,171.9L159.5,171.9z"/>
		<path class="st10" d="M162.6,178.6c-0.9-2.3-2.1-4.5-3.1-6.7l15.7-9.1c1.3,3,2.7,5.6,4.6,7.7C174.6,176.1,167.6,178,162.6,178.6z"
			/>
	</g>
	<g>
		<g>
			<path class="st10" d="M177,141.4c3.2-0.8,5.8,1.7,6.7,4.9c0.8,3.2-0.3,6-3.6,6.9c-3.1,0.8-6.2-1-7-4.3
				C172.3,145.7,173.9,142.2,177,141.4L177,141.4z"/>
			<path class="st1" d="M136.3,128.6c9.4-8.9,24.6-4.8,34.7,5.9c10.1,10.6,9.2,26,2.7,32.8c-8.8,9.2-24.2,7.7-34.3-2.9
				C129.4,153.7,127,137.5,136.3,128.6z"/>
			<path class="st1" d="M139.1,165.7c2.4-2.3,5.9-1.7,8.1,0.6c2.2,2.3,2.4,5.2,0,7.7c-2.3,2.3-5.9,2.3-8.1,0.1
				C136.9,171.8,136.7,168,139.1,165.7z"/>
			<path class="st10" d="M139.6,164.5c-0.1-0.1-0.1-0.1-0.2-0.2c-10.1-10.6-12.5-26.8-3.1-35.7c9.4-8.9,24.4-4.8,34.5,5.9
				c1,1,1.9,2.1,2.7,3.2c-2.9-2.6-7.6-3.7-7.6-3.7c-1.8,1.4-18.4,4.2-18.4,4.2c0.8,1.9,1.7,2.2,1.7,2.2c-2.2,2.4-12.6,4.8-12.6,4.8
				c-0.3,6.4,5.4,19.3,5.4,19.3C141.1,164.5,140.4,164.5,139.6,164.5L139.6,164.5z"/>
		</g>
		<g>
			<path class="st11" d="M165.5,140.6c3.1-1.5,5.1,0.5,5.4,1.2c0.3,0.7-1.9-1.9-5-0.4c-3.1,1.5-2.4,4.7-2.8,4
				C162.8,144.7,162.4,142.1,165.5,140.6z"/>
			<path class="st11" d="M148.4,151.1c2.6-2.2,5-0.8,5.5-0.2c0.5,0.6-2.3-1.4-4.9,0.9c-2.6,2.2-1.2,5.1-1.7,4.5
				C146.8,155.7,145.8,153.4,148.4,151.1z"/>
			<path class="st11" d="M162.2,136.2c2.2-1,5.4-0.9,5.5-0.3c0.1,0.6-2.6,0-4.8,1c-2.2,1-2.5,4.6-2.8,4
				C159.8,140.4,160,137.2,162.2,136.2L162.2,136.2z"/>
			<path class="st11" d="M144.4,145.4c-1.8,1.6-2,4.3-1.5,4.6c0.5,0.3,0.4-2.3,2.2-3.9c1.8-1.6,5.8-0.7,5.4-1.1
				C150.1,144.4,146.2,143.8,144.4,145.4z"/>
			<g>
				<path class="st12" d="M164.5,163.4c-4.5,1-7.7-1.2-8.5-4c-0.1-0.5,4-2.6,5.9-3.7c1.9-1.1,6.2-3.1,6.5-2.6
					C169.3,155.1,170.4,162,164.5,163.4z"/>
				<path class="st13" d="M159,162.8c0.3-0.3,0.5-0.5,0.8-0.8c2.1-1.9,4.8-3,7.7-3c0.5,0,1,0,1.4,0.1c-0.5,1.9-1.7,3.6-4.3,4.2
					C162.3,163.9,160.4,163.6,159,162.8z"/>
			</g>
			<path class="st14" d="M159,152.3c-1.3-2-1.2-4.4,0.1-5.1c1.6-0.8,5.6,2,4.9,4.1C163.1,154.7,159.7,153.3,159,152.3z"/>
		</g>
		<g>
			<path class="st43" d="M143.1,165.7c-0.9,0.1-8.5-16.2-8.1-23c0,0,13.2-0.5,16.9-3.3c0,0-6.2-0.8-6.8-1.7c0,0,17.4-3.2,20.1-4.5
				c2.8-1.3,9.7,5.1,10.9,8.8c0,0-1-19.7-16-21.2c0,0,0.6-2.4,3.5-4.1c0,0-21.3-7.3-31.2,11.1c0,0-2.3-3.8-1.2-5.4
				c0,0-5.6,4.1-2.9,13.4c0,0-6.6,6.1-6.2,8.9c0,0,3.2-2.7,5.7-2.4C127.8,142.2,120.4,162.2,143.1,165.7L143.1,165.7z"/>
			<path class="st44" d="M135.5,147.5c1.7,7.5,6.7,17.9,7.5,18.2l0.1,0c0,0,0,0-0.1,0c-12.6-2-15.9-9-16.3-14.9
				C129.2,150,132.2,148.9,135.5,147.5z M168.8,124.6c6.7,6.1,7.3,17.4,7.3,17.4c-1.2-3.7-8.2-10.2-10.9-8.8c-1,0.5-3.9,1.2-7.3,2
				C162,132.1,165.8,128.6,168.8,124.6z M151.6,139.4c0.1,0,0.2,0,0.2,0c-0.5,0.4-1.1,0.7-1.8,1C150.5,140,151.1,139.7,151.6,139.4z
				"/>
		</g>
	</g>
	<path class="st26" d="M218.1,208.2c0.9,0.4,2,0.6,3,0.8"/>
</g>
</svg>
