<svg xmlns="http://www.w3.org/2000/svg" xmlns:xlink="http://www.w3.org/1999/xlink" viewBox="0 0 750 500"><defs><style>.cls-1,.cls-28,.cls-34{fill:none;}.cls-2{fill:#fff;}.cls-3{isolation:isolate;}.cls-4{fill:#f8f9ff;}.cls-5{fill:#fff7f5;}.cls-6{fill:#ffd4cc;}.cls-7{fill:#2d77a7;}.cls-8{fill:#2f79a8;}.cls-9{fill:#ff9182;}.cls-10{fill:url(#Nueva_muestra_de_motivo_1);}.cls-11{fill:#ff8e00;}.cls-12{fill:url(#Nueva_muestra_de_motivo_1-3);}.cls-13{fill:#d34d46;}.cls-14{fill:#ffdeb3;}.cls-15{fill:#331b12;}.cls-16{fill:#efa554;}.cls-16,.cls-30{mix-blend-mode:multiply;}.cls-17{fill:#ff6454;}.cls-18{fill:#174477;}.cls-19{fill:#cc6a00;}.cls-20{fill:#ea990a;}.cls-21{fill:#ffbc2e;}.cls-22{fill:#ef3800;}.cls-23{fill:#773217;}.cls-24{fill:#ba2300;}.cls-25{fill:#eda043;}.cls-26{fill:#86ba38;}.cls-27{fill:#698528;}.cls-28{stroke:#331b12;}.cls-28,.cls-34{stroke-miterlimit:10;}.cls-29,.cls-30{fill:#efae67;}.cls-31{fill:#177765;}.cls-32{fill:#045142;}.cls-33{fill:#771717;}.cls-34{stroke:#ef3800;}</style><pattern id="Nueva_muestra_de_motivo_1" data-name="Nueva muestra de motivo 1" width="7.5" height="5" patternTransform="translate(0.53 -12.06) scale(1.02)" patternUnits="userSpaceOnUse" viewBox="0 0 7.5 5"><rect class="cls-1" width="7.5" height="5"/><path class="cls-2" d="M7.46,4.29A.71.71,0,1,1,6.79,5,.72.72,0,0,1,7.46,4.29Z"/><path class="cls-2" d="M0,4.29A.72.72,0,0,1,.71,5,.72.72,0,0,1,0,5.71.72.72,0,0,1-.71,5,.72.72,0,0,1,0,4.29Z"/><path class="cls-2" d="M7.46-.71A.72.72,0,0,1,8.21,0a.72.72,0,0,1-.67.75A.72.72,0,0,1,6.79,0,.72.72,0,0,1,7.46-.71Z"/><path class="cls-2" d="M3.71,1.79A.71.71,0,1,1,3,2.54.72.72,0,0,1,3.71,1.79Z"/><path class="cls-2" d="M0-.71A.72.72,0,0,1,.71,0,.72.72,0,0,1,0,.71.72.72,0,0,1-.71,0,.72.72,0,0,1,0-.71Z"/></pattern><pattern id="Nueva_muestra_de_motivo_1-3" data-name="Nueva muestra de motivo 1" width="7.5" height="5" patternTransform="translate(-11.07 -13.36) rotate(26.46) scale(1.02)" patternUnits="userSpaceOnUse" viewBox="0 0 7.5 5"><rect class="cls-1" width="7.5" height="5"/><path class="cls-2" d="M7.46,4.29A.71.71,0,1,1,6.79,5,.72.72,0,0,1,7.46,4.29Z"/><path class="cls-2" d="M0,4.29A.72.72,0,0,1,.71,5,.72.72,0,0,1,0,5.71.72.72,0,0,1-.71,5,.72.72,0,0,1,0,4.29Z"/><path class="cls-2" d="M7.46-.71A.72.72,0,0,1,8.21,0a.72.72,0,0,1-.67.75A.72.72,0,0,1,6.79,0,.72.72,0,0,1,7.46-.71Z"/><path class="cls-2" d="M3.71,1.79A.71.71,0,1,1,3,2.54.72.72,0,0,1,3.71,1.79Z"/><path class="cls-2" d="M0-.71A.72.72,0,0,1,.71,0,.72.72,0,0,1,0,.71.72.72,0,0,1-.71,0,.72.72,0,0,1,0-.71Z"/></pattern></defs><g class="cls-3"><g id="BACKGROUND"><rect class="cls-4" width="750" height="500" transform="translate(750 500) rotate(180)"/><path class="cls-5" d="M0,288.52v2l.7-.2C.46,289.73.24,289.13,0,288.52Z"/><path class="cls-5" d="M92.3,122.15l-.09.23.13-.2C92.81,121.2,93.18,119.8,92.3,122.15Z"/><path class="cls-5" d="M91.82,122.87c.09,0,.2-.12.32-.31l.07-.18C92,122.68,91.86,122.88,91.82,122.87Z"/><path class="cls-6" d="M92.14,122.56a2.69,2.69,0,0,0,.2-.38l-.13.2Z"/><path class="cls-7" d="M108.51,324.38c29.8-23.57,38.34-55.56,31-85.46a137.53,137.53,0,0,0-19.65-43.82c-9.6-14.42-20.7-28.53-27-43.8-.65-1.55-1.19-3.12-1.77-4.68-.08-.24-.16-.43-.22-.59s0-.21-.06-.34A59.9,59.9,0,0,1,89.49,135c0-.75-.62-4.1.14-4.59.08-.06-.71,3.74-.12,1.37.19-.74.27-1.51.44-2.26a41,41,0,0,1,1.5-5.17c.22-.59.46-1.17.69-1.76-.12.19-.23.32-.32.31s.19-.19.39-.49l.09-.23c.88-2.35.51-1,0,0,.73-1.1,1.94-3.12,2.14-3.38l1.57-2c.09.1,2.32-2.21,3-2.76s1.5-1.13,2.29-1.68c.33-.22,1.47-.89,2.31-1.4,1-.5,2.25-1.09,2.65-1.27q2.79-1.24,5.72-2.32l2-.71c2.46-.64,4.91-1.29,7.41-1.85,4.74-1.06,9.56-1.92,14.43-2.66a48.83,48.83,0,0,1,6.82-.93c-.18,0-5.37.56-2,.25,1.53-.13,3.05-.32,4.57-.47,11.6-1.14,23.29-2,35-2.67,23.54-1.44,47.15-2.29,70.77-2.94,96.22-2.67,195.46-2.24,287.15-24.63,45-11,90.41-30.43,96-65.18A55.54,55.54,0,0,0,634.83,0H0V288.52c.24.61.46,1.21.7,1.81l-.7.2v81.22c17.19-5.53,34.14-11.39,50.73-17.72C71.71,346,92.79,336.82,108.51,324.38Z"/><path class="cls-8" d="M750,136.45A746.21,746.21,0,0,0,655.4,141c-23.8,2.66-47.38,6-70.57,10.48-22.1,4.26-45.47,9-64.49,17.84-21.92,10.24-38.1,25.53-40.18,43.62-2.09,18.26,12.58,32.38,28.8,46q23.13,19.37,46.27,38.73a244.43,244.43,0,0,1,20.32,18.44,93.76,93.76,0,0,1,6.78,7.91c-.12-.07,1.17,1.9,1.68,2.82a48.39,48.39,0,0,1,2.68,5.65c.24.61.44,1.22.66,1.83.23,1.86.63,3.69.69,5.58,0,.59,0,1.18,0,1.77-.56,1.65-1.07,3.36-1.56,5-.28.42-.55.85-.85,1.27-.72,1-1.6,2-2.41,2.94l-.57.5c-1.78,1.33-3.5,2.66-5.45,3.9l-.2.12c-1.59.71-3.09,1.53-4.69,2.24-3.78,1.67-7.73,3.11-11.74,4.5l-.06,0-.52.15c-2,.54-4,1.1-6,1.62-4.69,1.22-9.46,2.31-14.25,3.33-41.24,8.79-83.13,15.87-124,25.57C372,403.22,329,415.56,288.55,430.91a589.1,589.1,0,0,0-55.44,24.23c-18.44,9.29-36.84,19.41-50.37,32A114.37,114.37,0,0,0,170.85,500H750Z"/></g><g id="OBJECTS"><path class="cls-9" d="M441.5,285.64h0a4.71,4.71,0,0,0,1.93-6.36l-8.25-15.44a4.72,4.72,0,0,0-6.37-1.92h0a4.71,4.71,0,0,0-1.92,6.36l8.25,15.43A4.71,4.71,0,0,0,441.5,285.64Z"/><path class="cls-10" d="M441.5,285.64h0a4.71,4.71,0,0,0,1.93-6.36l-8.25-15.44a4.72,4.72,0,0,0-6.37-1.92h0a4.71,4.71,0,0,0-1.92,6.36l8.25,15.43A4.71,4.71,0,0,0,441.5,285.64Z"/><path class="cls-11" d="M433.23,280.37c.24.37,1.55,5.05,1.55,5.05s-13.31,9.93-7,17.15l22.87-14.82-8.52-13.13Z"/><path class="cls-9" d="M492.69,366.62h0a4.71,4.71,0,0,0,4.56-4.84l-.51-17.49a4.72,4.72,0,0,0-4.84-4.56h0a4.7,4.7,0,0,0-4.56,4.84l.51,17.49A4.72,4.72,0,0,0,492.69,366.62Z"/><path class="cls-12" d="M492.69,366.62h0a4.71,4.71,0,0,0,4.56-4.84l-.51-17.49a4.72,4.72,0,0,0-4.84-4.56h0a4.7,4.7,0,0,0-4.56,4.84l.51,17.49A4.72,4.72,0,0,0,492.69,366.62Z"/><path class="cls-11" d="M487.63,358.22c.05.43-.86,5.2-.86,5.2s-16.35,3-13.93,12.24l27.08-3.08L498.15,357Z"/><rect class="cls-13" x="440.25" y="81.98" width="42.29" height="88.23" rx="12.21"/><path class="cls-14" d="M460.23,129.69h0a8.27,8.27,0,0,1-8.25-8.24V105.36a8.27,8.27,0,0,1,8.25-8.24h0a8.27,8.27,0,0,1,8.24,8.24v16.09A8.27,8.27,0,0,1,460.23,129.69Z"/><path class="cls-14" d="M487.28,89.76a4.1,4.1,0,1,1-4.1-4.28A4.2,4.2,0,0,1,487.28,89.76Z"/><path class="cls-14" d="M435.19,89.76a4.1,4.1,0,1,0,4.1-4.28A4.2,4.2,0,0,0,435.19,89.76Z"/><path class="cls-15" d="M483.23,87.41a.2.2,0,0,1,.35.21,4.64,4.64,0,0,0-.5,3.25,2.76,2.76,0,0,0,.82,1.22,1.87,1.87,0,0,0-.43-2.32.2.2,0,0,1,0-.28.21.21,0,0,1,.29,0,2.29,2.29,0,0,1,.47,2.88,4,4,0,0,0,.67.4.2.2,0,0,1-.08.38l-.09,0a3.5,3.5,0,0,1-2-2.12A5,5,0,0,1,483.23,87.41Z"/><path class="cls-15" d="M439.24,87.41a.21.21,0,0,0-.28-.07.22.22,0,0,0-.07.28,4.64,4.64,0,0,1,.5,3.25,2.76,2.76,0,0,1-.82,1.22,1.87,1.87,0,0,1,.43-2.32.19.19,0,0,0,0-.28.2.2,0,0,0-.28,0,2.28,2.28,0,0,0-.48,2.88,4,4,0,0,1-.67.4.2.2,0,0,0,.08.38l.09,0a3.5,3.5,0,0,0,2-2.12A5,5,0,0,0,439.24,87.41Z"/><ellipse class="cls-14" cx="460.84" cy="85.03" rx="20.59" ry="24.63"/><path class="cls-16" d="M462.44,92.8a1.79,1.79,0,1,0-3.58,0Z"/><path class="cls-15" d="M459.37,91.91a.2.2,0,0,1-.14-.06.19.19,0,0,1,0-.28,2,2,0,0,1,1.42-.6h0a2,2,0,0,1,1.4.58.19.19,0,0,1,0,.28.21.21,0,0,1-.29,0,1.62,1.62,0,0,0-1.13-.46,1.68,1.68,0,0,0-1.14.48A.2.2,0,0,1,459.37,91.91Z"/><path class="cls-15" d="M452,88.92c0,.88-.39,1.6-.88,1.6s-.89-.72-.89-1.6.4-1.61.89-1.61S452,88,452,88.92Z"/><path class="cls-15" d="M470.25,88.92c0,.88-.4,1.6-.89,1.6s-.89-.72-.89-1.6.4-1.61.89-1.61S470.25,88,470.25,88.92Z"/><path class="cls-17" d="M454.22,93.89c0,1.32-1.7,2.39-3.8,2.39s-3.79-1.07-3.79-2.39,1.7-2.38,3.79-2.38S454.22,92.58,454.22,93.89Z"/><path class="cls-17" d="M473.75,93.89c0,1.32-1.7,2.39-3.8,2.39s-3.79-1.07-3.79-2.39,1.7-2.38,3.79-2.38S473.75,92.58,473.75,93.89Z"/><path class="cls-13" d="M448.09,85.88a.4.4,0,0,1-.31-.13.41.41,0,0,1,0-.57,3.89,3.89,0,0,1,5.55,0,.41.41,0,0,1-.59.56,3.06,3.06,0,0,0-4.43,0A.37.37,0,0,1,448.09,85.88Z"/><path class="cls-13" d="M466.86,85.88a.39.39,0,0,1-.3-.13.41.41,0,0,1,0-.57,3.9,3.9,0,0,1,5.56,0,.41.41,0,0,1-.59.56,3.06,3.06,0,0,0-4.43,0A.38.38,0,0,1,466.86,85.88Z"/><path class="cls-2" d="M464.89,95.71a6.92,6.92,0,0,1-8.85,0Z"/><path class="cls-9" d="M455,65.31s12.06,19.15,26.43,21c0-.43,0-.87,0-1.31,0-13.6-9.21-24.63-20.59-24.63s-20.59,11-20.59,24.63C440.25,85,454.81,84.71,455,65.31Z"/><path class="cls-16" d="M460.84,109.66a17.82,17.82,0,0,1-8.86-2.39h0s6.95,11.91,16.49,13.49V107.91A17.57,17.57,0,0,1,460.84,109.66Z"/><path class="cls-14" d="M385.39,70.3s-1.8-15.64-3.47-17.31-11-7.51-13-6.09,5.75,8.17,5.75,8.17l.4,5.47s-1.35-4-2.88-4.23,1.3,7.79,1.3,7.79,5.39,4.58,6.81,8.26S385.8,73.57,385.39,70.3Z"/><path class="cls-16" d="M369,46.55a.33.33,0,0,1,.24,0C375,48,380.4,53.1,380.46,53.15a.3.3,0,1,1-.41.43c-.05,0-5.33-5-11-6.5a.29.29,0,0,1-.21-.36A.3.3,0,0,1,369,46.55Z"/><path class="cls-16" d="M368.72,48.36a.31.31,0,0,1,.25,0,24.1,24.1,0,0,1,10.19,6.17.3.3,0,0,1,0,.42.31.31,0,0,1-.42,0,23.53,23.53,0,0,0-9.91-6,.29.29,0,0,1-.21-.36A.34.34,0,0,1,368.72,48.36Z"/><path class="cls-14" d="M537.55,70.3S539.35,54.66,541,53s11-7.51,13-6.09-5.75,8.17-5.75,8.17l-.4,5.47s1.35-4,2.88-4.23-1.3,7.79-1.3,7.79-5.39,4.58-6.81,8.26S537.14,73.57,537.55,70.3Z"/><path class="cls-16" d="M554,46.55a.34.34,0,0,0-.24,0c-5.83,1.52-11.22,6.59-11.27,6.64a.3.3,0,0,0,.41.43c.05,0,5.33-5,11-6.5a.29.29,0,0,0,.21-.36A.3.3,0,0,0,554,46.55Z"/><path class="cls-16" d="M554.22,48.36a.31.31,0,0,0-.25,0,24.1,24.1,0,0,0-10.19,6.17.29.29,0,0,0,0,.42.31.31,0,0,0,.42,0,23.53,23.53,0,0,1,9.91-6,.29.29,0,0,0,.21-.36A.34.34,0,0,0,554.22,48.36Z"/><path class="cls-18" d="M502,345.19s-14.78-170.48-14.5-170.36l-.28.27v-.39l-42-1.45s-33,3.85-51.72,17.42c-18.57,13.43,29,80.48,29,80.48l14.78-9.49-18.21-52.9L453.21,207l28.22,138.23Z"/><path class="cls-15" d="M453.22,206.94h-.07a.7.7,0,0,1-.63-.76l1.57-18a6,6,0,0,1-3.12.6c-2.3-.19-4.51-1.7-6.58-4.49a.7.7,0,0,1,.15-1,.69.69,0,0,1,1,.15c1.81,2.44,3.68,3.77,5.55,3.93a4.69,4.69,0,0,0,3.36-1.09.72.72,0,0,1,.79-.13.69.69,0,0,1,.39.69l-1.69,19.39A.7.7,0,0,1,453.22,206.94Z"/><path class="cls-11" d="M536.4,65.45s-22.74,50.31-68.23,51.23l-6.93.9-6.94-.9c-45.49-.92-68.23-51.23-68.23-51.23l-8,5.74c6,39.74,54.77,71.58,54.77,71.58L435,174.83h52.55l2.16-32.06s48.8-31.84,54.77-71.58Z"/><rect class="cls-19" x="449.18" y="114.59" width="22.09" height="4.25" rx="2.04"/><path class="cls-14" d="M188.37,175.63s1.79-15.64,3.47-17.31,11-7.51,13-6.09-5.74,8.17-5.74,8.17l-.41,5.47s1.36-4,2.88-4.23-1.29,7.79-1.29,7.79-5.4,4.58-6.82,8.26S188,178.9,188.37,175.63Z"/><path class="cls-16" d="M204.81,151.89a.31.31,0,0,0-.25,0c-5.83,1.53-11.21,6.59-11.26,6.64a.29.29,0,0,0,0,.42.28.28,0,0,0,.41,0c.06,0,5.33-5,11-6.5a.28.28,0,0,0,.21-.36A.24.24,0,0,0,204.81,151.89Z"/><path class="cls-16" d="M205,153.69a.34.34,0,0,0-.24,0,24.09,24.09,0,0,0-10.2,6.17.3.3,0,0,0,0,.42.31.31,0,0,0,.42,0,23.64,23.64,0,0,1,9.91-6,.3.3,0,0,0,.09-.53Z"/><path class="cls-20" d="M106.1,165.78s31.68-2,52.8,62.74H112.6l-4.52-48.1Z"/><path class="cls-14" d="M139.33,189.75c-.94-.36-2.31-2-3.2-3.23a28.46,28.46,0,0,0-2.67-8c-6-11.88-19-17.42-28.91-12.38s-13.08,18.77-7,30.65,19,17.42,28.91,12.37c5.82-3,9.31-8.89,10-15.69C137.69,192.52,140.48,190.19,139.33,189.75Z"/><path class="cls-15" d="M132,188.11c0,.86-.42,1.56-.9,1.55s-.86-.72-.84-1.59.42-1.56.9-1.55S132,187.24,132,188.11Z"/><path class="cls-17" d="M134.1,193c0,1.29-1.71,2.3-3.76,2.26s-3.7-1.13-3.67-2.42,1.72-2.3,3.77-2.26S134.13,191.74,134.1,193Z"/><path class="cls-15" d="M127.58,186.88a.36.36,0,0,1-.32,0,.4.4,0,0,1-.15-.54,3.83,3.83,0,0,1,5.18-1.67.41.41,0,0,1,.16.54.4.4,0,0,1-.54.16,3,3,0,0,0-4.11,1.37A.41.41,0,0,1,127.58,186.88Z"/><path class="cls-2" d="M127.18,196.61a12.19,12.19,0,0,0,8.06,2.53c.24-.76.43-1.55.6-2.34Z"/><path class="cls-15" d="M111.29,187.73a.23.23,0,0,0-.31-.09.23.23,0,0,0-.08.3,5.17,5.17,0,0,1,.47,3.63,3.11,3.11,0,0,1-.93,1.35,2.06,2.06,0,0,1,.53-2.57.23.23,0,0,0,0-.32.22.22,0,0,0-.31,0,2.54,2.54,0,0,0-.59,3.2,5.11,5.11,0,0,1-.77.42.23.23,0,0,0-.11.3.21.21,0,0,0,.2.13.15.15,0,0,0,.09,0,3.9,3.9,0,0,0,2.3-2.31A5.5,5.5,0,0,0,111.29,187.73Z"/><path class="cls-14" d="M113.88,231.55h0a8.09,8.09,0,0,1-7.9-8.24l.34-15.76a8.09,8.09,0,0,1,8.24-7.9h0a8.1,8.1,0,0,1,7.9,8.25l-.33,15.75A8.1,8.1,0,0,1,113.88,231.55Z"/><path class="cls-16" d="M106.36,207.07a3.88,3.88,0,0,0,0,.48s8.36,9,15.91,11.11l.17-8A20.59,20.59,0,0,1,106.36,207.07Z"/><path class="cls-21" d="M104.55,166.19c-9.93,5.05-13.08,18.77-7,30.65a27.54,27.54,0,0,0,8.49,10c4.42-2.93,5.34-10.89,5.4-11.44a4.37,4.37,0,0,1-1.45.24,4.78,4.78,0,0,1,.21-9.55,4.4,4.4,0,0,1,2.23.69v0c-2.23-4.2,1.34-8.53,1.34-8.53,7.94,3.23,13.12-3.2,16.06-5.17,2.16-1.45,3.29.46,2.48-2C129.18,161.6,112,162.42,104.55,166.19Z"/><path class="cls-21" d="M115.7,163.54s-31.68-2-52.81,62.75h46.3l4.53-48.1Z"/><path class="cls-22" d="M59.23,344.29h0a4.93,4.93,0,0,1,6.2-3.12l17.36,5.75a4.92,4.92,0,0,1,3.12,6.2h0a4.92,4.92,0,0,1-6.2,3.12L62.35,350.5A4.92,4.92,0,0,1,59.23,344.29Z"/><path class="cls-15" d="M65.6,352c-.42-.18-5.47-.69-5.47-.69s-7.85,15.48-16.4,10.28L54.9,335.38l15,6.42Z"/><polygon class="cls-21" points="70.04 342.7 66.55 351.89 67.51 352.21 71.01 343.02 70.04 342.7"/><polygon class="cls-21" points="73.08 343.7 69.58 352.89 70.55 353.21 74.04 344.02 73.08 343.7"/><polygon class="cls-21" points="76.11 344.71 72.61 353.89 73.58 354.21 77.08 345.03 76.11 344.71"/><polygon class="cls-21" points="79.14 345.71 75.65 354.9 76.61 355.22 80.11 346.03 79.14 345.71"/><path class="cls-21" d="M82.79,346.92l-.61-.21-3.5,9.19,1,.32,3.48-9.15A3.49,3.49,0,0,0,82.79,346.92Z"/><path class="cls-21" d="M85,348.39l-3,8a4.62,4.62,0,0,0,1.21-.33l2.54-6.66A4.52,4.52,0,0,0,85,348.39Z"/><path class="cls-22" d="M222.13,443.86h0a4.92,4.92,0,0,1-6.78-1.5L205.51,427a4.92,4.92,0,0,1,1.49-6.78h0a4.92,4.92,0,0,1,6.78,1.5l9.85,15.4A4.94,4.94,0,0,1,222.13,443.86Z"/><path class="cls-15" d="M222,433.88c.21.4,3.81,4,3.81,4s15.85-7.05,19.21,2.38L219.87,453.5,212.25,439Z"/><polygon class="cls-21" points="212.73 438.27 221.24 433.35 220.69 432.49 212.19 437.41 212.73 438.27"/><polygon class="cls-21" points="211.01 435.58 219.52 430.65 218.97 429.8 210.47 434.72 211.01 435.58"/><polygon class="cls-21" points="209.29 432.88 217.8 427.96 217.25 427.1 208.75 432.02 209.29 432.88"/><polygon class="cls-21" points="207.57 430.19 216.08 425.27 215.53 424.41 207.03 429.33 207.57 430.19"/><path class="cls-21" d="M205.51,427l.34.55,8.51-4.92-.55-.86-8.47,4.9A3.41,3.41,0,0,0,205.51,427Z"/><path class="cls-21" d="M204.76,424.45l7.44-4.31a5,5,0,0,0-1.16-.51l-6.17,3.57A5.24,5.24,0,0,0,204.76,424.45Z"/><path class="cls-23" d="M219.31,422.86l-77.84-149V265.4H92.59v13.47c-4,28.81,19,67.21,23.8,74.92l-1.45.27L80.76,337.9,71,361.53l54.11,31.6a19.45,19.45,0,0,0,8,3.26,15,15,0,0,0,3.08.18c18-1,21.88-21,21.88-21s.5.14,1.35.33c6.51,8.89,44.74,55.92,44.74,55.92Z"/><path class="cls-15" d="M158.11,376.22a.65.65,0,0,1-.64-.54c-.51-1.95-20.86-52.82-31.57-79.51a.65.65,0,0,1,.14-.7.67.67,0,0,1,.71-.15c.07,0,7.06,2.78,9.62-1.88a.64.64,0,0,1,.88-.26.66.66,0,0,1,.26.88c-2.14,3.9-6.82,3.76-9.88,2.93,8,19.83,31.07,77.5,31.13,78.55a.65.65,0,0,1-.61.68Z"/><path class="cls-15" d="M128.65,375.8a.67.67,0,0,1-.56-.31l-13.78-22.17a.65.65,0,0,1,1.11-.69L129.2,374.8a.65.65,0,0,1-.21.9A.63.63,0,0,1,128.65,375.8Z"/><path class="cls-22" d="M141.47,273.88,144,242.8s45.52-29.7,51.09-66.77l-7.5-5.36s-21.22,46.93-63.65,47.79l-17.82.2s-24.55,10.4-27.84,21.84-7.58,31.77,2.14,39.2,41.6-6.29,41.6-6.29Z"/><path class="cls-24" d="M123.15,221.1H106.83a1.81,1.81,0,0,1-1.81-1.81h0a1.81,1.81,0,0,1,1.81-1.81h16.32a1.81,1.81,0,0,1,1.81,1.81h0A1.81,1.81,0,0,1,123.15,221.1Z"/><path class="cls-14" d="M133.32,261c-1.41-.36-7.38,2-11.77,3.8v7.58a39.67,39.67,0,0,1,6.56,1.55s8.37-1.72,7.36-2.89-5.11-.3-5.11-.3l4.9-2.46s9.78,3.19,10,.73S135.61,261.55,133.32,261Z"/><path class="cls-16" d="M145.51,268.79a.33.33,0,0,0-.09-.23c-4.3-4.22-11.41-6.24-11.48-6.26a.3.3,0,0,0-.37.21.3.3,0,0,0,.21.36c.07,0,7,2,11.22,6.11a.3.3,0,0,0,.42,0A.31.31,0,0,0,145.51,268.79Z"/><path class="cls-16" d="M144.07,269.91a.26.26,0,0,0-.09-.23,24.05,24.05,0,0,0-10.53-5.58.29.29,0,0,0-.35.23.3.3,0,0,0,.23.35,23.55,23.55,0,0,1,10.24,5.42.3.3,0,0,0,.42,0A.29.29,0,0,0,144.07,269.91Z"/><path class="cls-15" d="M83,259.5,95.76,261l-2.7-13.62a.48.48,0,1,1,1-.19l2.76,13.93,24.55,2.84a.46.46,0,0,1,.42.44l.72,9a.5.5,0,0,1-.45.53h0a.49.49,0,0,1-.48-.45l-.68-8.61L82.9,260.46a.49.49,0,0,1-.43-.54A.47.47,0,0,1,83,259.5Z"/><path class="cls-25" d="M539.66,159.77s-3.73-15.29-5.59-16.74-11.83-6.09-13.65-4.44,6.72,7.4,6.72,7.4l1.08,5.37s-1.84-3.76-3.38-3.83,2.25,7.57,2.25,7.57,5.92,3.87,7.79,7.35S540.47,163,539.66,159.77Z"/><path class="cls-16" d="M520.39,138.25a.34.34,0,0,1,.24-.07c6,.79,12,5.14,12,5.19a.29.29,0,0,1,.06.41.31.31,0,0,1-.42.07s-5.9-4.32-11.73-5.08a.3.3,0,0,1-.25-.34A.31.31,0,0,1,520.39,138.25Z"/><path class="cls-16" d="M520.4,140.07a.33.33,0,0,1,.24-.07,24.22,24.22,0,0,1,10.88,4.85.3.3,0,0,1-.38.46,23.47,23.47,0,0,0-10.58-4.72.3.3,0,0,1-.26-.33A.32.32,0,0,1,520.4,140.07Z"/><path class="cls-25" d="M590.07,167.69c.89-.48,2-2.29,2.77-3.6a28.28,28.28,0,0,1,1.66-8.23c4.52-12.53,16.67-19.64,27.15-15.86s15.32,17,10.8,29.53-16.67,19.64-27.15,15.87c-6.14-2.21-10.34-7.67-11.86-14.33C592,170.23,589,168.27,590.07,167.69Z"/><path class="cls-15" d="M597.12,165.15c.12.86.61,1.5,1.09,1.43s.76-.82.63-1.68-.61-1.5-1.09-1.43S597,164.29,597.12,165.15Z"/><path class="cls-17" d="M595.66,170.29c.19,1.28,2,2.08,4,1.78s3.52-1.58,3.34-2.86-2-2.07-4-1.77S595.47,169,595.66,170.29Z"/><path class="cls-15" d="M601.37,163.39a.42.42,0,0,0,.32-.08.39.39,0,0,0,.07-.55,3.8,3.8,0,0,0-5.34-1,.39.39,0,0,0,.46.64,3,3,0,0,1,4.25.85A.45.45,0,0,0,601.37,163.39Z"/><path class="cls-2" d="M603,173a12.26,12.26,0,0,1-7.69,3.51c-.33-.73-.62-1.48-.88-2.25Z"/><path class="cls-15" d="M617.64,162.2a.23.23,0,0,1,.29-.13.24.24,0,0,1,.13.3,5.15,5.15,0,0,0,0,3.66,3.11,3.11,0,0,0,1.1,1.21,2.07,2.07,0,0,0-.84-2.48.22.22,0,0,1-.07-.31.24.24,0,0,1,.31-.07,2.55,2.55,0,0,1,1,3.1,3.82,3.82,0,0,0,.8.32.23.23,0,0,1,.15.28.2.2,0,0,1-.18.16h-.1a3.94,3.94,0,0,1-2.56-2A5.5,5.5,0,0,1,617.64,162.2Z"/><path class="cls-25" d="M620.51,206h0a8.11,8.11,0,0,0,6.82-9.16L625,181.26a8.09,8.09,0,0,0-9.16-6.82h0a8.1,8.1,0,0,0-6.81,9.16l2.29,15.59A8.1,8.1,0,0,0,620.51,206Z"/><path class="cls-16" d="M624.94,180.78c0,.16.07.31.09.48,0,0-7.17,10-14.41,13l-1.16-7.93C614.91,186.85,620.46,184.76,624.94,180.78Z"/><path class="cls-15" d="M621.65,140c10.48,3.77,15.32,17,10.8,29.53a27.57,27.57,0,0,1-7.18,10.94c-4.75-2.36-6.66-10.15-6.78-10.68a4.24,4.24,0,0,0,1.47.05,4.78,4.78,0,0,0-1.39-9.44,4.37,4.37,0,0,0-2.13,1v0c1.7-4.45-2.38-8.3-2.38-8.3-7.49,4.19-13.42-1.55-16.58-3.14-2.33-1.16-3.21.87-2.72-1.69C596.64,138.5,613.82,137.18,621.65,140Z"/><path class="cls-19" d="M639.87,160.76l-.85-.47c1.41-5.63,2.12-16.44-9.65-24.52-11.18-7.68-21.92-1.26-27.76,3.76L599,138.1a3.49,3.49,0,0,0-3.39,6.11l40.84,22.66a3.49,3.49,0,1,0,3.39-6.11Z"/><path class="cls-11" d="M603.23,138.21c-.57.44-1.11.88-1.61,1.32L639,160.28c.15-.6.3-1.27.42-2Z"/><path class="cls-22" d="M688.75,311.09h0a4.93,4.93,0,0,0-6.55-2.33l-16.51,7.86a4.92,4.92,0,0,0-2.32,6.54h0a4.91,4.91,0,0,0,6.54,2.32l16.51-7.85A4.92,4.92,0,0,0,688.75,311.09Z"/><path class="cls-19" d="M683.37,319.49c.4-.23,5.35-1.36,5.35-1.36s9.71,14.38,17.55,8.17l-14.34-24.59-14.12,8.23Z"/><path class="cls-22" d="M539.47,430.11h0a4.93,4.93,0,0,0,6.55-2.32l7.85-16.51a4.93,4.93,0,0,0-2.33-6.55h0a4.92,4.92,0,0,0-6.54,2.33l-7.85,16.51A4.92,4.92,0,0,0,539.47,430.11Z"/><path class="cls-19" d="M538.34,420.2c-.16.43-3.29,4.43-3.29,4.43s-16.61-5-18.77,4.74l26.64,10,5.76-15.3Z"/><path class="cls-15" d="M539.67,408.93l58.73-157.5L597.34,243l48.5-6.07,1.67,13.36c7.57,28.09-10.46,69.05-14.31,77.3l1.48.09,31.9-20.28,12.6,22.24-49.77,38.07a19.32,19.32,0,0,1-7.54,4.23,15.33,15.33,0,0,1-3,.56c-17.94,1.24-24.31-18.11-24.31-18.11s-.48.2-1.3.49c-5.36,9.62-37.45,61.05-37.45,61.05Z"/><path class="cls-23" d="M594.6,355.05a.65.65,0,0,0,.57-.62c.26-2,14.13-55,21.45-82.81a.66.66,0,0,0-1-.74c-.07,0-6.66,3.64-9.78-.67a.65.65,0,0,0-.91-.15.65.65,0,0,0-.15.91c2.61,3.6,7.24,2.88,10.17,1.68-5.43,20.66-21.2,80.75-21.13,81.8a.65.65,0,0,0,.69.61Z"/><path class="cls-23" d="M623.78,351a.67.67,0,0,0,.51-.37l10.92-23.72a.65.65,0,1,0-1.18-.54l-10.92,23.71a.65.65,0,0,0,.32.87A.6.6,0,0,0,623.78,351Z"/><path class="cls-26" d="M598.4,251.43l-6.34-30.53s-48.85-23.81-59-59.9l6.77-6.25s26.88,43.93,69.09,39.51l17.71-2s25.66,7.27,30.34,18.21,11.46,30.58,2.74,39.16-42.05-1.07-42.05-1.07Z"/><path class="cls-27" d="M610,196.79l16.19-2a1.8,1.8,0,0,0,1.57-2h0a1.8,1.8,0,0,0-2-1.57l-16.19,2a1.83,1.83,0,0,0-1.58,2h0A1.82,1.82,0,0,0,610,196.79Z"/><rect class="cls-23" x="577.54" y="225.86" width="34.31" height="27.26" rx="1.54" transform="translate(-36.51 351.71) rotate(-32.02)"/><rect class="cls-11" x="573.52" y="231.54" width="4.61" height="3.38" transform="translate(-36.06 340.75) rotate(-32.02)"/><path class="cls-11" d="M604.36,234.44a10.15,10.15,0,1,1-14-3.23A10.14,10.14,0,0,1,604.36,234.44Z"/><path class="cls-18" d="M603.73,237.47a8.31,8.31,0,1,1-10.32-5.62A8.32,8.32,0,0,1,603.73,237.47Z"/><rect class="cls-18" x="591.38" y="224.11" width="10.39" height="1.9" transform="translate(-28.58 350.51) rotate(-32.02)"/><line class="cls-28" x1="574.77" y1="235.88" x2="589.22" y2="258.99"/><path class="cls-15" d="M599.42,216.39h0l1.87-6.06a.28.28,0,0,1,.54.17L600,216.55a.28.28,0,0,1-.35.18A.27.27,0,0,1,599.42,216.39Z"/><path class="cls-15" d="M603.17,217.92h0l4.28-4.69a.28.28,0,0,1,.39,0,.28.28,0,0,1,0,.4l-4.27,4.68a.28.28,0,0,1-.4,0A.28.28,0,0,1,603.17,217.92Z"/><path class="cls-15" d="M606.49,221.32h0l5.47-3.19a.29.29,0,0,1,.39.1.27.27,0,0,1-.1.38l-5.48,3.2a.28.28,0,1,1-.29-.48Z"/><path class="cls-25" d="M604.88,237.61c1.35-.53,7.57,1,12.15,2.31l.94,7.52a40.31,40.31,0,0,0-6.32,2.35s-8.51-.66-7.65-1.95,5-.93,5-.93l-5.16-1.84s-9.31,4.39-9.8,2S602.67,238.47,604.88,237.61Z"/><path class="cls-16" d="M593.76,246.89a.31.31,0,0,1,0-.25c3.75-4.72,10.55-7.6,10.62-7.63a.3.3,0,0,1,.39.16.3.3,0,0,1-.16.39c-.06,0-6.73,2.85-10.38,7.45a.3.3,0,0,1-.42.05A.33.33,0,0,1,593.76,246.89Z"/><path class="cls-16" d="M595.32,247.82a.3.3,0,0,1,.06-.24,24.19,24.19,0,0,1,9.75-6.85.3.3,0,0,1,.38.19.29.29,0,0,1-.18.37,23.5,23.5,0,0,0-9.48,6.65.3.3,0,0,1-.42.05A.28.28,0,0,1,595.32,247.82Z"/><path class="cls-15" d="M654.61,229.9l-12.46,3,1-13.85a.49.49,0,1,0-1-.07l-1,14.16-24,5.86a.49.49,0,0,0-.37.5l.41,9a.47.47,0,0,0,.5.46h0a.49.49,0,0,0,.43-.5l-.4-8.63,37.07-9.06a.48.48,0,1,0-.23-.94Z"/><polygon class="cls-23" points="608.72 246.8 604.3 249.56 603.19 247.49 606.12 245.88 608.72 246.8"/><path class="cls-29" d="M288.23,180.69h0a8.27,8.27,0,0,1-8.25-8.24V156.36a8.27,8.27,0,0,1,8.25-8.24h0a8.27,8.27,0,0,1,8.24,8.24v16.09A8.27,8.27,0,0,1,288.23,180.69Z"/><path class="cls-29" d="M315.28,140.76a4.1,4.1,0,1,1-4.1-4.28A4.2,4.2,0,0,1,315.28,140.76Z"/><path class="cls-29" d="M263.19,140.76a4.1,4.1,0,1,0,4.1-4.28A4.2,4.2,0,0,0,263.19,140.76Z"/><path class="cls-15" d="M311.23,138.41a.2.2,0,0,1,.35.21,4.64,4.64,0,0,0-.5,3.25,2.76,2.76,0,0,0,.82,1.22,1.87,1.87,0,0,0-.43-2.32.2.2,0,0,1,0-.28.21.21,0,0,1,.29,0,2.29,2.29,0,0,1,.47,2.88,4,4,0,0,0,.67.4.2.2,0,0,1-.08.38l-.09,0a3.5,3.5,0,0,1-2-2.12A5,5,0,0,1,311.23,138.41Z"/><path class="cls-15" d="M267.24,138.41a.21.21,0,0,0-.28-.07.22.22,0,0,0-.07.28,4.64,4.64,0,0,1,.5,3.25,2.76,2.76,0,0,1-.82,1.22,1.87,1.87,0,0,1,.43-2.32.19.19,0,0,0,0-.28.2.2,0,0,0-.28,0,2.28,2.28,0,0,0-.48,2.88,4,4,0,0,1-.67.4.2.2,0,0,0,.08.38l.09,0a3.5,3.5,0,0,0,2-2.12A5,5,0,0,0,267.24,138.41Z"/><ellipse class="cls-29" cx="288.84" cy="136.03" rx="20.59" ry="24.63"/><path class="cls-30" d="M290.44,143.8a1.79,1.79,0,1,0-3.58,0Z"/><path class="cls-15" d="M287.37,142.91a.2.2,0,0,1-.14-.06.19.19,0,0,1,0-.28,2,2,0,0,1,1.42-.6h0a2,2,0,0,1,1.4.58.19.19,0,0,1,0,.28.21.21,0,0,1-.29,0,1.62,1.62,0,0,0-1.13-.46,1.68,1.68,0,0,0-1.14.48A.2.2,0,0,1,287.37,142.91Z"/><path class="cls-15" d="M280,139.92c0,.88-.39,1.6-.88,1.6s-.89-.72-.89-1.6.4-1.61.89-1.61S280,139,280,139.92Z"/><path class="cls-15" d="M298.25,139.92c0,.88-.4,1.6-.89,1.6s-.89-.72-.89-1.6.4-1.61.89-1.61S298.25,139,298.25,139.92Z"/><path class="cls-17" d="M282.22,144.89c0,1.32-1.7,2.39-3.8,2.39s-3.79-1.07-3.79-2.39,1.7-2.38,3.79-2.38S282.22,143.58,282.22,144.89Z"/><path class="cls-17" d="M301.75,144.89c0,1.32-1.7,2.39-3.8,2.39s-3.79-1.07-3.79-2.39,1.7-2.38,3.79-2.38S301.75,143.58,301.75,144.89Z"/><path class="cls-23" d="M276.09,136.88a.4.4,0,0,1-.31-.13.41.41,0,0,1,0-.57,3.89,3.89,0,0,1,5.55,0,.41.41,0,0,1-.59.56,3.06,3.06,0,0,0-4.43,0A.37.37,0,0,1,276.09,136.88Z"/><path class="cls-23" d="M294.86,136.88a.39.39,0,0,1-.3-.13.41.41,0,0,1,0-.57,3.9,3.9,0,0,1,5.56,0,.41.41,0,0,1-.59.56,3.06,3.06,0,0,0-4.43,0A.38.38,0,0,1,294.86,136.88Z"/><path class="cls-2" d="M292.89,146.71a6.92,6.92,0,0,1-8.85,0Z"/><path class="cls-30" d="M288.84,160.66a17.82,17.82,0,0,1-8.86-2.39h0s6.95,11.91,16.49,13.49V158.91A17.57,17.57,0,0,1,288.84,160.66Z"/><path class="cls-23" d="M268.25,136s11.84-2.71,11.73-14.53c0,0,5.41,9.31,14.48,7.26,0,0,5.22,9.83,15,7.27s5.39-15.15-1.87-14.53c0,0,.49-10.75-14.67-10.75,0,0-14.3-5.72-20.56,10.57C272.33,121.32,264.15,126.77,268.25,136Z"/><path class="cls-11" d="M284.08,376.14h0a6.4,6.4,0,0,0,2.41-8.7l-11.73-20.68a6.4,6.4,0,0,0-8.7-2.4h0a6.4,6.4,0,0,0-2.4,8.7l11.72,20.68A6.4,6.4,0,0,0,284.08,376.14Z"/><path class="cls-15" d="M272.68,370c.33.49,2.26,6.8,2.26,6.8S257.2,390.69,266,400.28l30.55-20.88-12-17.55Z"/><path class="cls-11" d="M331.77,372.18h0a6.4,6.4,0,0,1-5.12-7.44L331,341.37a6.41,6.41,0,0,1,7.44-5.12h0a6.4,6.4,0,0,1,5.12,7.44l-4.33,23.37A6.4,6.4,0,0,1,331.77,372.18Z"/><path class="cls-15" d="M340.52,362.61c-.15.57.08,7.17.08,7.17s21.32,7.37,16.15,19.31l-35.7-9.77,5.61-20.5Z"/><path class="cls-29" d="M343.93,102.34s-2.08-6.26-1.94-7.92S342,80,337.81,71.2c0,0-3.52-4.22-5.74-3.65a4.83,4.83,0,0,0-3,3l1.4,15.77s-2-.37-2.57-1.35-2.48-2.34-3.7-1.83c0,0,4.73,11.39,6.06,12.11s2.63.9,3.11,3.06,1.08,5.55,1.08,5.55S340.23,109.1,343.93,102.34Z"/><path class="cls-30" d="M333.17,89.2a.23.23,0,0,0,.17-.26,4,4,0,0,0-2.83-2.82.22.22,0,0,0-.27.16.24.24,0,0,0,.16.28A3.56,3.56,0,0,1,332.89,89a.23.23,0,0,0,.27.18Z"/><path class="cls-30" d="M338.62,80.06a.23.23,0,0,0,.18-.26c-1.66-9.67-1.73-9.74-1.8-9.8a.23.23,0,0,0-.32,0,.23.23,0,0,0,0,.26c.11.39,1.08,6,1.71,9.63a.23.23,0,0,0,.26.18Z"/><path class="cls-30" d="M335.93,80.07a.22.22,0,0,0,.17-.26c-2.26-12.22-2.28-12.23-2.45-12.29a.23.23,0,0,0-.29.13.25.25,0,0,0,0,.17c.12.43,1.44,7.43,2.3,12.07a.23.23,0,0,0,.26.18Z"/><path class="cls-30" d="M333.21,81.26a.22.22,0,0,0,.17-.26L331,68.17a.24.24,0,0,0-.27-.18.24.24,0,0,0-.18.27l2.44,12.83a.23.23,0,0,0,.26.18Z"/><path class="cls-30" d="M339.69,82.91a.22.22,0,0,0,.13-.09.23.23,0,0,0,0-.31c-3.85-2.93-7.48.76-7.52.79a.23.23,0,0,0,.33.32c.13-.14,3.39-3.44,6.91-.75A.26.26,0,0,0,339.69,82.91Z"/><path class="cls-29" d="M307.56,164s22.39-25.42,24.75-39.77a110.42,110.42,0,0,0,1.42-25s8.46-1.62,9-1.27,7.68,27.2-1.28,48-25.67,35.26-25.67,35.26Z"/><path class="cls-29" d="M225.12,100.78s1.77-6.35,1.56-8-.67-14.42,3-23.39c0,0,3.32-4.39,5.56-3.93a4.81,4.81,0,0,1,3.15,2.87l-.63,15.82s2-.47,2.5-1.47,2.36-2.46,3.61-2c0,0-4.17,11.61-5.47,12.39s-2.58,1-3,3.21-.81,5.6-.81,5.6S229.14,107.36,225.12,100.78Z"/><path class="cls-30" d="M235.23,87.14a.22.22,0,0,1-.18-.25,4,4,0,0,1,2.68-3,.24.24,0,0,1,.29.15.23.23,0,0,1-.15.28A3.6,3.6,0,0,0,235.5,87a.23.23,0,0,1-.26.19Z"/><path class="cls-30" d="M229.34,78.27a.23.23,0,0,1-.19-.25c1.19-9.73,1.26-9.81,1.32-9.88a.22.22,0,0,1,.32,0,.23.23,0,0,1,.06.25c-.09.39-.79,6-1.25,9.7a.21.21,0,0,1-.25.19Z"/><path class="cls-30" d="M232,78.15a.23.23,0,0,1-.19-.25c1.68-12.31,1.7-12.32,1.86-12.39a.23.23,0,0,1,.3.11.28.28,0,0,1,0,.18c-.1.43-1.07,7.48-1.71,12.16a.23.23,0,0,1-.25.2Z"/><path class="cls-30" d="M234.81,79.21a.22.22,0,0,1-.19-.25L236.43,66a.23.23,0,1,1,.45.06L235.07,79a.23.23,0,0,1-.26.2Z"/><path class="cls-30" d="M228.41,81.17a.2.2,0,0,1-.13-.08.22.22,0,0,1,0-.32c3.7-3.11,7.5.4,7.54.44a.22.22,0,0,1,0,.32.23.23,0,0,1-.32,0c-.14-.14-3.55-3.27-6.94-.42A.22.22,0,0,1,228.41,81.17Z"/><path class="cls-29" d="M264.43,160.64s-23.6-24.3-26.65-38.52a110.24,110.24,0,0,1-2.62-24.9s-8.53-1.2-9-.83-6.35,27.54,3.61,47.87,27.34,34,27.34,34Z"/><path class="cls-31" d="M324.58,138.31l-25.26,30.84H275.14l-25.57-27.78-17.32,11.29L244,169.91a61.25,61.25,0,0,1,8.33,17.71l14.34,49.94,45.07-.39,9.48-42.88a101.88,101.88,0,0,1,12.13-30.42l8.15-13.56Z"/><path class="cls-32" d="M298.24,170.3H276a1.4,1.4,0,0,1-1.4-1.4h0a1.4,1.4,0,0,1,1.4-1.39h22.21a1.4,1.4,0,0,1,1.39,1.39h0A1.4,1.4,0,0,1,298.24,170.3Z"/><path class="cls-33" d="M357.91,257.12c-3-5.1-25.57-13.44-46.09-20.17l-.05.22-44.57.38c-19.1,14.08-46,34.93-47.47,41.95-2.24,10.88,45.7,86.94,45.7,86.94l15.63-11.84-30.28-69.05s22.07-13.4,39.7-24.29a365.57,365.57,0,0,1,40,11.7l-6.08,75.16,18.64,6.09S363.57,266.67,357.91,257.12Z"/><path class="cls-15" d="M290.57,260.89h-.06a.62.62,0,0,1-.65-.58l-1-16a5.22,5.22,0,0,1-2.66.95c-2,.13-4.19-.9-6.38-3.09a.62.62,0,0,1,.88-.87c1.91,1.91,3.73,2.82,5.4,2.72a4.16,4.16,0,0,0,2.81-1.4.61.61,0,0,1,.67-.22.63.63,0,0,1,.44.56l1.07,17.27A.63.63,0,0,1,290.57,260.89Z"/><circle class="cls-34" cx="130.37" cy="123.19" r="8.52" transform="translate(-48.92 128.27) rotate(-45)"/><circle class="cls-34" cx="426.64" cy="372.77" r="8.52"/><circle class="cls-34" cx="590.15" cy="82.98" r="8.52" transform="translate(373.8 638.28) rotate(-76.72)"/><circle class="cls-34" cx="182.65" cy="124.77" r="6.12" transform="translate(-25.31 49.39) rotate(-14.41)"/><path class="cls-34" d="M156.15,151.15a4.65,4.65,0,1,1-4.55-4.75A4.66,4.66,0,0,1,156.15,151.15Z"/><path class="cls-34" d="M396.61,384.1a4.65,4.65,0,1,1-4.55-4.75A4.66,4.66,0,0,1,396.61,384.1Z"/><circle class="cls-34" cx="628.11" cy="101.53" r="8.52" transform="translate(8.96 248.1) rotate(-22.5)"/><path class="cls-34" d="M598.08,112.86a4.65,4.65,0,1,1-4.55-4.75A4.66,4.66,0,0,1,598.08,112.86Z"/></g></g></svg>